<svg width="733" height="362" viewBox="0 0 733 362" fill="none" xmlns="http://www.w3.org/2000/svg">
<g filter="url(#filter0_d_4091_1708)">
<path fill-rule="evenodd" clip-rule="evenodd" d="M55.8031 25.3823L55.9089 25.3823H678.934L679.04 25.3823C680.663 25.3823 682.04 25.3822 683.17 25.4746C684.356 25.5714 685.503 25.7831 686.597 26.3408C688.252 27.184 689.597 28.5293 690.44 30.184C690.998 31.2785 691.21 32.4254 691.307 33.611C691.399 34.741 691.399 36.1185 691.399 37.7415V37.847V124.484C691.399 124.775 691.565 125.042 691.827 125.17L707.573 132.897C707.835 133.026 708 133.292 708 133.584L708.001 228.416C708.001 228.708 707.835 228.974 707.573 229.102L691.827 236.83C691.565 236.958 691.399 237.224 691.399 237.516V324.153V324.258C691.399 325.882 691.399 327.259 691.307 328.389C691.21 329.575 690.998 330.721 690.44 331.816C689.597 333.471 688.252 334.816 686.597 335.659C685.503 336.217 684.356 336.429 683.17 336.525C682.041 336.618 680.664 336.618 679.041 336.618H679.04H678.934H55.9089H55.8034H55.8015H55.8013H55.801H55.8008C54.1789 336.618 52.8023 336.618 51.6729 336.525C50.4872 336.429 49.3404 336.217 48.2459 335.659C46.5911 334.816 45.2458 333.471 44.4027 331.816C43.845 330.721 43.6333 329.575 43.5364 328.389C43.4441 327.259 43.4441 325.882 43.4442 324.259L43.4442 324.153V238.305C43.4442 238.013 43.2782 237.747 43.0164 237.618L25.6632 229.103C25.4013 228.974 25.2354 228.708 25.2354 228.416L25.2354 133.584C25.2354 133.292 25.4013 133.026 25.6632 132.897L43.0164 124.382C43.2782 124.253 43.4442 123.987 43.4442 123.695V37.847L43.4442 37.7412C43.4441 36.1183 43.4441 34.7409 43.5364 33.611C43.6333 32.4254 43.845 31.2785 44.4027 30.184C45.2458 28.5293 46.5911 27.184 48.2459 26.3408C49.3404 25.7831 50.4872 25.5714 51.6729 25.4746C52.8028 25.3822 54.1801 25.3823 55.803 25.3823H55.8031L55.8031 25.3823ZM52.1088 30.8097C51.2542 30.8796 50.8902 31.0012 50.676 31.1103C50.0285 31.4403 49.5021 31.9667 49.1722 32.6142C49.0631 32.8283 48.9414 33.1923 48.8716 34.0469C48.7992 34.9328 48.7971 36.0898 48.7971 37.847V324.153C48.7971 325.91 48.7992 327.067 48.8716 327.953C48.9414 328.808 49.0631 329.172 49.1722 329.386C49.5021 330.033 50.0285 330.56 50.676 330.89C50.8902 330.999 51.2542 331.12 52.1088 331.19C52.9946 331.263 54.1516 331.265 55.9089 331.265H233.771C233.885 331.265 233.997 331.239 234.099 331.19L250.656 323.309C250.759 323.261 250.871 323.235 250.985 323.235H485.102C485.216 323.235 485.328 323.261 485.431 323.309L501.987 331.19C502.09 331.239 502.202 331.265 502.316 331.265H678.934C680.691 331.265 681.848 331.263 682.734 331.19C683.589 331.12 683.953 330.999 684.167 330.89C684.814 330.56 685.341 330.033 685.671 329.386C685.78 329.172 685.902 328.808 685.971 327.953C686.044 327.067 686.046 325.91 686.046 324.153V37.847C686.046 36.0898 686.044 34.9328 685.971 34.0469C685.902 33.1923 685.78 32.8283 685.671 32.6142C685.341 31.9667 684.814 31.4403 684.167 31.1103C683.953 31.0012 683.589 30.8796 682.734 30.8097C681.848 30.7374 680.691 30.7353 678.934 30.7353H502.981C502.868 30.7353 502.755 30.7606 502.653 30.8095L485.431 39.0074C485.328 39.0562 485.216 39.0816 485.102 39.0816H250.985C250.871 39.0816 250.759 39.0562 250.656 39.0074L233.434 30.8095C233.331 30.7606 233.219 30.7353 233.105 30.7353H55.9089C54.1516 30.7353 52.9946 30.7374 52.1088 30.8097Z" fill="#45F4FF"/>
</g>
<defs>
<filter id="filter0_d_4091_1708" x="0.764765" y="0.911737" width="731.707" height="360.177" filterUnits="userSpaceOnUse" color-interpolation-filters="sRGB">
<feFlood flood-opacity="0" result="BackgroundImageFix"/>
<feColorMatrix in="SourceAlpha" type="matrix" values="0 0 0 0 0 0 0 0 0 0 0 0 0 0 0 0 0 0 127 0" result="hardAlpha"/>
<feOffset/>
<feGaussianBlur stdDeviation="12.2353"/>
<feComposite in2="hardAlpha" operator="out"/>
<feColorMatrix type="matrix" values="0 0 0 0 0.269167 0 0 0 0 0.95615 0 0 0 0 1 0 0 0 1 0"/>
<feBlend mode="normal" in2="BackgroundImageFix" result="effect1_dropShadow_4091_1708"/>
<feBlend mode="normal" in="SourceGraphic" in2="effect1_dropShadow_4091_1708" result="shape"/>
</filter>
</defs>
</svg>
