<svg width="32" height="33" viewBox="0 0 32 33" fill="none" xmlns="http://www.w3.org/2000/svg">
<path d="M27.6129 5.33636C27.6129 5.33636 30.2031 4.32636 29.9872 6.77922C29.9153 7.78924 29.2677 11.3242 28.7641 15.1478L27.0373 26.4743C27.0373 26.4743 26.8934 28.1336 25.5983 28.4222C24.3031 28.7107 22.3605 27.4122 22.0007 27.1236C21.7129 26.9072 16.6045 23.6607 14.8057 22.0736C14.3021 21.6407 13.7265 20.775 14.8777 19.765L22.4325 12.5507C23.2959 11.685 24.1593 9.66497 20.5617 12.1178L10.4887 18.9714C10.4887 18.9714 9.33753 19.6928 7.17907 19.0436L2.50228 17.6007C2.50228 17.6007 0.775474 16.5186 3.72543 15.4364C10.9205 12.0456 19.7703 8.58277 27.6129 5.33636Z" fill="white"/>
</svg>
