<svg width="24" height="25" viewBox="0 0 24 25" fill="none" xmlns="http://www.w3.org/2000/svg">
<path d="M21.1714 12.0961C20.315 8.2242 19.0261 6.1576 17.1141 5.5931C16.7122 5.47521 16.2953 5.41632 15.8765 5.41826C15.3229 5.41826 14.8408 5.55313 14.3308 5.69607C13.7162 5.86849 13.0181 6.06432 12.0001 6.06432C10.9822 6.06432 10.2836 5.86889 9.66783 5.69647C9.15744 5.55313 8.67572 5.41826 8.12374 5.41826C7.69064 5.41676 7.25944 5.47547 6.84251 5.5927C4.94066 6.15477 3.65257 8.22056 2.78361 12.0937C1.84924 16.2616 2.30916 18.8931 4.07332 19.5037C4.31514 19.5889 4.56958 19.6329 4.82598 19.6337C6.03453 19.6337 7.00362 18.627 7.66584 17.8029C8.41406 16.8702 9.28988 16.3969 12.0001 16.3969C14.4208 16.3969 15.4226 16.7252 16.288 17.8029C16.8319 18.4805 17.3459 18.9545 17.8587 19.2529C18.5407 19.6494 19.2223 19.7375 19.8841 19.5101C20.9267 19.1544 21.5243 18.214 21.6608 16.7143C21.7646 15.5643 21.6047 14.0537 21.1714 12.0961ZM10.0619 11.8789H8.7698V13.171C8.7698 13.3424 8.70173 13.5067 8.58057 13.6279C8.45941 13.749 8.29508 13.8171 8.12374 13.8171C7.95239 13.8171 7.78806 13.749 7.6669 13.6279C7.54574 13.5067 7.47767 13.3424 7.47767 13.171V11.8789H6.18554C6.0142 11.8789 5.84987 11.8108 5.72871 11.6897C5.60755 11.5685 5.53948 11.4042 5.53948 11.2328C5.53948 11.0615 5.60755 10.8972 5.72871 10.776C5.84987 10.6548 6.0142 10.5868 6.18554 10.5868H7.47767V9.29464C7.47767 9.1233 7.54574 8.95897 7.6669 8.83781C7.78806 8.71665 7.95239 8.64858 8.12374 8.64858C8.29508 8.64858 8.45941 8.71665 8.58057 8.83781C8.70173 8.95897 8.7698 9.1233 8.7698 9.29464V10.5868H10.0619C10.2333 10.5868 10.3976 10.6548 10.5188 10.776C10.6399 10.8972 10.708 11.0615 10.708 11.2328C10.708 11.4042 10.6399 11.5685 10.5188 11.6897C10.3976 11.8108 10.2333 11.8789 10.0619 11.8789ZM13.4538 12.0404C13.294 12.0404 13.1379 11.9931 13.0051 11.9043C12.8723 11.8156 12.7688 11.6895 12.7077 11.5419C12.6465 11.3943 12.6305 11.2319 12.6617 11.0753C12.6929 10.9186 12.7698 10.7747 12.8827 10.6618C12.9957 10.5488 13.1396 10.4719 13.2962 10.4408C13.4529 10.4096 13.6152 10.4256 13.7628 10.4867C13.9104 10.5479 14.0365 10.6514 14.1252 10.7842C14.214 10.917 14.2613 11.0731 14.2613 11.2328C14.2613 11.447 14.1763 11.6524 14.0248 11.8039C13.8734 11.9553 13.6679 12.0404 13.4538 12.0404ZM15.2304 13.8171C15.0706 13.8171 14.9144 13.7697 14.7816 13.6809C14.6487 13.592 14.5452 13.4658 14.4841 13.3181C14.4231 13.1704 14.4072 13.0079 14.4385 12.8512C14.4699 12.6945 14.547 12.5506 14.6601 12.4378C14.7733 12.3249 14.9173 12.2481 15.0741 12.2172C15.2309 12.1863 15.3934 12.2026 15.5409 12.264C15.6884 12.3254 15.8144 12.4292 15.9029 12.5623C15.9914 12.6954 16.0384 12.8517 16.038 13.0115C16.0375 13.2254 15.9522 13.4303 15.8008 13.5813C15.6494 13.7323 15.4443 13.8171 15.2304 13.8171ZM15.2304 10.2637C15.0707 10.2637 14.9146 10.2164 14.7818 10.1276C14.649 10.0389 14.5455 9.91277 14.4843 9.76521C14.4232 9.61764 14.4072 9.45526 14.4384 9.29861C14.4695 9.14195 14.5465 8.99806 14.6594 8.88511C14.7723 8.77217 14.9162 8.69526 15.0729 8.6641C15.2295 8.63294 15.3919 8.64893 15.5395 8.71005C15.6871 8.77118 15.8132 8.87469 15.9019 9.00749C15.9907 9.1403 16.038 9.29644 16.038 9.45616C16.038 9.67034 15.9529 9.87576 15.8015 10.0272C15.65 10.1787 15.4446 10.2637 15.2304 10.2637ZM17.0071 12.0404C16.8474 12.0404 16.6913 11.9931 16.5585 11.9043C16.4256 11.8156 16.3221 11.6895 16.261 11.5419C16.1999 11.3943 16.1839 11.2319 16.2151 11.0753C16.2462 10.9186 16.3231 10.7747 16.4361 10.6618C16.549 10.5488 16.6929 10.4719 16.8496 10.4408C17.0062 10.4096 17.1686 10.4256 17.3162 10.4867C17.4637 10.5479 17.5899 10.6514 17.6786 10.7842C17.7673 10.917 17.8147 11.0731 17.8147 11.2328C17.8147 11.447 17.7296 11.6524 17.5782 11.8039C17.4267 11.9553 17.2213 12.0404 17.0071 12.0404Z" fill="white"/>
</svg>
