<svg width="1240" height="194" viewBox="0 0 1240 194" fill="none" xmlns="http://www.w3.org/2000/svg">
<g filter="url(#filter0_d_96_727)">
<path d="M839.236 130.481L903.078 125.307H1063.5L960.631 142.847L984.745 148.934L802.499 160.54L818.849 166.593L613.04 177.213L787.187 160.54L777.544 152.561L863.081 142.847L839.236 130.481Z" fill="white"/>
</g>
<g filter="url(#filter1_d_96_727)">
<path d="M197.942 42.3291L180.79 53.7637L234.844 53.7637L318.61 51.1408L209.639 30.4461L241.673 20.0987L86.9185 16.7768L158.188 30.4461L197.942 42.3291Z" fill="white"/>
</g>
<g filter="url(#filter2_ddi_96_727)">
<mask id="path-3-outside-1_96_727" maskUnits="userSpaceOnUse" x="181.5" y="51.241" width="901" height="69" fill="black">
<rect fill="white" x="181.5" y="51.241" width="901" height="69"/>
<path d="M221.698 71.591L219.448 78.971H259.768L255.268 93.371H214.948L208.288 115.241H188.758L203.968 65.741L198.298 57.101H266.428L262.018 71.591H221.698ZM295.587 57.101L282.177 100.841H319.437L315.027 115.241H258.237L273.447 65.741L267.777 57.101H295.587ZM389.305 57.101L383.545 75.911L357.175 95.891L351.235 115.241H331.705L337.645 95.891L323.605 75.911L326.755 65.741L321.085 57.101H348.895L345.475 68.261L352.675 78.971L366.355 68.261L369.775 57.101H389.305ZM396.322 65.741L390.652 57.101H418.192L431.332 83.111L439.342 57.101H458.872L441.052 115.241H421.792L408.652 89.231L400.642 115.241H381.112L396.322 65.741ZM465.889 65.741L460.219 57.101H487.759L500.899 83.111L508.909 57.101H528.439L510.619 115.241H491.359L478.219 89.231L470.209 115.241H450.679L465.889 65.741ZM527.446 71.591L531.946 57.191H551.566L547.066 71.591L536.986 81.941H533.566L536.716 71.591H527.446ZM601.148 115.241H541.298L545.708 100.841H586.028L588.278 93.371H547.958L556.508 65.741L550.838 57.101H618.968L614.558 71.591H574.238L571.988 78.971H612.308L601.148 115.241ZM727.606 57.101L709.786 115.241H690.256L695.926 96.611H675.046L669.376 115.241H649.846L665.056 65.741L659.386 57.101H727.606ZM682.786 71.591L679.546 82.211H700.426L703.666 71.591H682.786ZM797.086 57.101L785.386 95.081H774.676L779.176 115.241H759.556L754.786 95.081H745.066L738.856 115.241H719.326L734.536 65.741L728.866 57.101H797.086ZM752.266 71.591L749.386 80.681H770.266L773.146 71.591H752.266ZM821.745 71.591L812.745 100.841H852.885L848.475 115.241H788.805L804.015 65.741L798.345 57.101H866.385L861.885 71.591H821.745ZM935.868 57.101L918.048 115.241H898.518L904.188 96.611H883.308L877.638 115.241H858.108L873.318 65.741L867.648 57.101H935.868ZM891.048 71.591L887.808 82.211H908.688L911.928 71.591H891.048ZM927.588 115.241L942.798 65.741L937.128 57.101H1005.35L992.928 97.691L969.528 115.241H927.588ZM981.408 71.591H960.528L951.528 100.841H961.968L975.648 90.041L981.408 71.591ZM1030.09 71.591L1027.84 78.971H1068.25L1063.75 93.371H1023.34L1021.09 100.841H1061.41L1057.09 115.241H997.155L1012.36 65.741L1006.69 57.101H1074.91L1070.41 71.591H1030.09Z"/>
</mask>
<path d="M221.698 71.591L219.448 78.971H259.768L255.268 93.371H214.948L208.288 115.241H188.758L203.968 65.741L198.298 57.101H266.428L262.018 71.591H221.698ZM295.587 57.101L282.177 100.841H319.437L315.027 115.241H258.237L273.447 65.741L267.777 57.101H295.587ZM389.305 57.101L383.545 75.911L357.175 95.891L351.235 115.241H331.705L337.645 95.891L323.605 75.911L326.755 65.741L321.085 57.101H348.895L345.475 68.261L352.675 78.971L366.355 68.261L369.775 57.101H389.305ZM396.322 65.741L390.652 57.101H418.192L431.332 83.111L439.342 57.101H458.872L441.052 115.241H421.792L408.652 89.231L400.642 115.241H381.112L396.322 65.741ZM465.889 65.741L460.219 57.101H487.759L500.899 83.111L508.909 57.101H528.439L510.619 115.241H491.359L478.219 89.231L470.209 115.241H450.679L465.889 65.741ZM527.446 71.591L531.946 57.191H551.566L547.066 71.591L536.986 81.941H533.566L536.716 71.591H527.446ZM601.148 115.241H541.298L545.708 100.841H586.028L588.278 93.371H547.958L556.508 65.741L550.838 57.101H618.968L614.558 71.591H574.238L571.988 78.971H612.308L601.148 115.241ZM727.606 57.101L709.786 115.241H690.256L695.926 96.611H675.046L669.376 115.241H649.846L665.056 65.741L659.386 57.101H727.606ZM682.786 71.591L679.546 82.211H700.426L703.666 71.591H682.786ZM797.086 57.101L785.386 95.081H774.676L779.176 115.241H759.556L754.786 95.081H745.066L738.856 115.241H719.326L734.536 65.741L728.866 57.101H797.086ZM752.266 71.591L749.386 80.681H770.266L773.146 71.591H752.266ZM821.745 71.591L812.745 100.841H852.885L848.475 115.241H788.805L804.015 65.741L798.345 57.101H866.385L861.885 71.591H821.745ZM935.868 57.101L918.048 115.241H898.518L904.188 96.611H883.308L877.638 115.241H858.108L873.318 65.741L867.648 57.101H935.868ZM891.048 71.591L887.808 82.211H908.688L911.928 71.591H891.048ZM927.588 115.241L942.798 65.741L937.128 57.101H1005.35L992.928 97.691L969.528 115.241H927.588ZM981.408 71.591H960.528L951.528 100.841H961.968L975.648 90.041L981.408 71.591ZM1030.09 71.591L1027.84 78.971H1068.25L1063.75 93.371H1023.34L1021.09 100.841H1061.41L1057.09 115.241H997.155L1012.36 65.741L1006.69 57.101H1074.91L1070.41 71.591H1030.09Z" fill="black" fill-opacity="0.25" shape-rendering="crispEdges"/>
<path d="M221.698 71.591V66.591H217.995L216.915 70.1328L221.698 71.591ZM219.448 78.971L214.665 77.5128L212.696 83.971H219.448V78.971ZM259.768 78.971L264.54 80.4623L266.569 73.971H259.768V78.971ZM255.268 93.371V98.371H258.944L260.04 94.8623L255.268 93.371ZM214.948 93.371V88.371H211.244L210.165 91.9144L214.948 93.371ZM208.288 115.241V120.241H211.992L213.071 116.698L208.288 115.241ZM188.758 115.241L183.979 113.772L181.991 120.241H188.758V115.241ZM203.968 65.741L208.747 67.2096L209.438 64.9628L208.148 62.9977L203.968 65.741ZM198.298 57.101V52.101H189.036L194.118 59.8442L198.298 57.101ZM266.428 57.101L271.211 58.5568L273.176 52.101H266.428V57.101ZM262.018 71.591V76.591H265.723L266.801 73.0468L262.018 71.591ZM216.915 70.1328L214.665 77.5128L224.231 80.4291L226.481 73.0491L216.915 70.1328ZM219.448 83.971H259.768V73.971H219.448V83.971ZM254.996 77.4796L250.496 91.8796L260.04 94.8623L264.54 80.4623L254.996 77.4796ZM255.268 88.371H214.948V98.371H255.268V88.371ZM210.165 91.9144L203.505 113.784L213.071 116.698L219.731 94.8276L210.165 91.9144ZM208.288 110.241H188.758V120.241H208.288V110.241ZM193.537 116.71L208.747 67.2096L199.189 64.2724L183.979 113.772L193.537 116.71ZM208.148 62.9977L202.478 54.3577L194.118 59.8442L199.788 68.4842L208.148 62.9977ZM198.298 62.101H266.428V52.101H198.298V62.101ZM261.645 55.6452L257.235 70.1352L266.801 73.0468L271.211 58.5568L261.645 55.6452ZM262.018 66.591H221.698V76.591H262.018V66.591ZM295.587 57.101L300.368 58.5666L302.35 52.101H295.587V57.101ZM282.177 100.841L277.397 99.3754L275.415 105.841H282.177V100.841ZM319.437 100.841L324.218 102.305L326.198 95.841H319.437V100.841ZM315.027 115.241V120.241H318.725L319.808 116.705L315.027 115.241ZM258.237 115.241L253.458 113.772L251.47 120.241H258.237V115.241ZM273.447 65.741L278.227 67.2096L278.917 64.9628L277.628 62.9977L273.447 65.741ZM267.777 57.101V52.101H258.516L263.597 59.8442L267.777 57.101ZM290.807 55.6354L277.397 99.3754L286.958 102.307L300.368 58.5666L290.807 55.6354ZM282.177 105.841H319.437V95.841H282.177V105.841ZM314.656 99.3768L310.246 113.777L319.808 116.705L324.218 102.305L314.656 99.3768ZM315.027 110.241H258.237V120.241H315.027V110.241ZM263.017 116.71L278.227 67.2096L268.668 64.2724L253.458 113.772L263.017 116.71ZM277.628 62.9977L271.958 54.3577L263.597 59.8442L269.267 68.4842L277.628 62.9977ZM267.777 62.101H295.587V52.101H267.777V62.101ZM389.305 57.101L394.086 58.565L396.065 52.101H389.305V57.101ZM383.545 75.911L386.564 79.8962L387.852 78.9202L388.326 77.375L383.545 75.911ZM357.175 95.891L354.155 91.9057L352.869 92.8805L352.395 94.4237L357.175 95.891ZM351.235 115.241V120.241H354.93L356.015 116.708L351.235 115.241ZM331.705 115.241L326.925 113.774L324.94 120.241H331.705V115.241ZM337.645 95.891L342.425 97.3583L343.143 95.0187L341.736 93.0162L337.645 95.891ZM323.605 75.911L318.829 74.4316L318.102 76.7769L319.514 78.7857L323.605 75.911ZM326.755 65.741L331.531 67.2203L332.228 64.9685L330.935 62.9977L326.755 65.741ZM321.085 57.101V52.101H311.823L316.904 59.8442L321.085 57.101ZM348.895 57.101L353.675 58.566L355.656 52.101H348.895V57.101ZM345.475 68.261L340.694 66.796L339.996 69.0736L341.325 71.0505L345.475 68.261ZM352.675 78.971L348.525 81.7605L351.524 86.2217L355.757 82.9079L352.675 78.971ZM366.355 68.261L369.437 72.1979L370.675 71.2289L371.135 69.726L366.355 68.261ZM369.775 57.101V52.101H366.077L364.994 55.636L369.775 57.101ZM384.524 55.637L378.764 74.447L388.326 77.375L394.086 58.565L384.524 55.637ZM380.525 71.9257L354.155 91.9057L360.194 99.8762L386.564 79.8962L380.525 71.9257ZM352.395 94.4237L346.455 113.774L356.015 116.708L361.955 97.3583L352.395 94.4237ZM351.235 110.241H331.705V120.241H351.235V110.241ZM336.485 116.708L342.425 97.3583L332.865 94.4237L326.925 113.774L336.485 116.708ZM341.736 93.0162L327.696 73.0362L319.514 78.7857L333.554 98.7657L341.736 93.0162ZM328.381 77.3903L331.531 67.2203L321.979 64.2616L318.829 74.4316L328.381 77.3903ZM330.935 62.9977L325.265 54.3577L316.904 59.8442L322.574 68.4842L330.935 62.9977ZM321.085 62.101H348.895V52.101H321.085V62.101ZM344.114 55.636L340.694 66.796L350.255 69.726L353.675 58.566L344.114 55.636ZM341.325 71.0505L348.525 81.7605L356.824 76.1814L349.624 65.4714L341.325 71.0505ZM355.757 82.9079L369.437 72.1979L363.272 64.324L349.592 75.034L355.757 82.9079ZM371.135 69.726L374.555 58.566L364.994 55.636L361.574 66.796L371.135 69.726ZM369.775 62.101H389.305V52.101H369.775V62.101ZM396.322 65.741L401.101 67.2096L401.792 64.9628L400.502 62.9977L396.322 65.741ZM390.652 57.101V52.101H381.39L386.472 59.8442L390.652 57.101ZM418.192 57.101L422.655 54.8464L421.268 52.101H418.192V57.101ZM431.332 83.111L426.869 85.3655L432.461 96.4339L436.11 84.5826L431.332 83.111ZM439.342 57.101V52.101H435.65L434.563 55.6294L439.342 57.101ZM458.872 57.101L463.652 58.5662L465.634 52.101H458.872V57.101ZM441.052 115.241V120.241H444.749L445.832 116.706L441.052 115.241ZM421.792 115.241L417.329 117.496L418.716 120.241H421.792V115.241ZM408.652 89.231L413.115 86.9764L407.523 75.908L403.873 87.7594L408.652 89.231ZM400.642 115.241V120.241H404.334L405.42 116.713L400.642 115.241ZM381.112 115.241L376.332 113.772L374.345 120.241H381.112V115.241ZM400.502 62.9977L394.832 54.3577L386.472 59.8442L392.142 68.4842L400.502 62.9977ZM390.652 62.101H418.192V52.101H390.652V62.101ZM413.729 59.3555L426.869 85.3655L435.795 80.8564L422.655 54.8464L413.729 59.3555ZM436.11 84.5826L444.12 58.5726L434.563 55.6294L426.553 81.6394L436.11 84.5826ZM439.342 62.101H458.872V52.101H439.342V62.101ZM454.091 55.6357L436.271 113.776L445.832 116.706L463.652 58.5662L454.091 55.6357ZM441.052 110.241H421.792V120.241H441.052V110.241ZM426.255 112.986L413.115 86.9764L404.189 91.4855L417.329 117.496L426.255 112.986ZM403.873 87.7594L395.863 113.769L405.42 116.713L413.43 90.7026L403.873 87.7594ZM400.642 110.241H381.112V120.241H400.642V110.241ZM385.891 116.71L401.101 67.2096L391.542 64.2724L376.332 113.772L385.891 116.71ZM465.889 65.741L470.669 67.2096L471.359 64.9628L470.069 62.9977L465.889 65.741ZM460.219 57.101V52.101H450.957L456.039 59.8442L460.219 57.101ZM487.759 57.101L492.222 54.8464L490.835 52.101H487.759V57.101ZM500.899 83.111L496.436 85.3655L502.028 96.4339L505.678 84.5826L500.899 83.111ZM508.909 57.101V52.101H505.217L504.131 55.6294L508.909 57.101ZM528.439 57.101L533.22 58.5662L535.201 52.101H528.439V57.101ZM510.619 115.241V120.241H514.316L515.4 116.706L510.619 115.241ZM491.359 115.241L486.896 117.496L488.283 120.241H491.359V115.241ZM478.219 89.231L482.682 86.9764L477.09 75.908L473.441 87.7594L478.219 89.231ZM470.209 115.241V120.241H473.901L474.988 116.713L470.209 115.241ZM450.679 115.241L445.9 113.772L443.912 120.241H450.679V115.241ZM470.069 62.9977L464.399 54.3577L456.039 59.8442L461.709 68.4842L470.069 62.9977ZM460.219 62.101H487.759V52.101H460.219V62.101ZM483.296 59.3555L496.436 85.3655L505.362 80.8564L492.222 54.8464L483.296 59.3555ZM505.678 84.5826L513.688 58.5726L504.131 55.6294L496.121 81.6394L505.678 84.5826ZM508.909 62.101H528.439V52.101H508.909V62.101ZM523.659 55.6357L505.839 113.776L515.4 116.706L533.22 58.5662L523.659 55.6357ZM510.619 110.241H491.359V120.241H510.619V110.241ZM495.822 112.986L482.682 86.9764L473.756 91.4855L486.896 117.496L495.822 112.986ZM473.441 87.7594L465.431 113.769L474.988 116.713L482.998 90.7026L473.441 87.7594ZM470.209 110.241H450.679V120.241H470.209V110.241ZM455.459 116.71L470.669 67.2096L461.11 64.2724L445.9 113.772L455.459 116.71ZM527.446 71.591L522.674 70.0996L520.645 76.591H527.446V71.591ZM531.946 57.191V52.191H528.27L527.174 55.6996L531.946 57.191ZM551.566 57.191L556.339 58.6823L558.367 52.191H551.566V57.191ZM547.066 71.591L550.648 75.0795L551.482 74.2232L551.839 73.0823L547.066 71.591ZM536.986 81.941V86.941H539.096L540.568 85.4295L536.986 81.941ZM533.566 81.941L528.783 80.4852L526.818 86.941H533.566V81.941ZM536.716 71.591L541.5 73.0468L543.464 66.591H536.716V71.591ZM532.219 73.0823L536.719 58.6823L527.174 55.6996L522.674 70.0996L532.219 73.0823ZM531.946 62.191H551.566V52.191H531.946V62.191ZM546.794 55.6996L542.294 70.0996L551.839 73.0823L556.339 58.6823L546.794 55.6996ZM543.484 68.1025L533.404 78.4525L540.568 85.4295L550.648 75.0795L543.484 68.1025ZM536.986 76.941H533.566V86.941H536.986V76.941ZM538.35 83.3968L541.5 73.0468L531.933 70.1352L528.783 80.4852L538.35 83.3968ZM536.716 66.591H527.446V76.591H536.716V66.591ZM601.148 115.241V120.241H604.841L605.927 116.711L601.148 115.241ZM541.298 115.241L536.517 113.777L534.537 120.241H541.298V115.241ZM545.708 100.841V95.841H542.01L540.927 99.3768L545.708 100.841ZM586.028 100.841V105.841H589.744L590.815 102.283L586.028 100.841ZM588.278 93.371L593.065 94.813L595.006 88.371H588.278V93.371ZM547.958 93.371L543.181 91.8929L541.177 98.371H547.958V93.371ZM556.508 65.741L561.284 67.219L561.981 64.9678L560.688 62.9977L556.508 65.741ZM550.838 57.101V52.101H541.576L546.658 59.8442L550.838 57.101ZM618.968 57.101L623.751 58.5568L625.716 52.101H618.968V57.101ZM614.558 71.591V76.591H618.263L619.341 73.0468L614.558 71.591ZM574.238 71.591V66.591H570.535L569.455 70.1328L574.238 71.591ZM571.988 78.971L567.205 77.5128L565.236 83.971H571.988V78.971ZM612.308 78.971L617.087 80.4414L619.078 73.971H612.308V78.971ZM601.148 110.241H541.298V120.241H601.148V110.241ZM546.079 116.705L550.489 102.305L540.927 99.3768L536.517 113.777L546.079 116.705ZM545.708 105.841H586.028V95.841H545.708V105.841ZM590.815 102.283L593.065 94.813L583.49 91.9289L581.24 99.3989L590.815 102.283ZM588.278 88.371H547.958V98.371H588.278V88.371ZM552.734 94.849L561.284 67.219L551.731 64.2629L543.181 91.8929L552.734 94.849ZM560.688 62.9977L555.018 54.3577L546.658 59.8442L552.328 68.4842L560.688 62.9977ZM550.838 62.101H618.968V52.101H550.838V62.101ZM614.184 55.6452L609.774 70.1352L619.341 73.0468L623.751 58.5568L614.184 55.6452ZM614.558 66.591H574.238V76.591H614.558V66.591ZM569.455 70.1328L567.205 77.5128L576.771 80.4291L579.021 73.0491L569.455 70.1328ZM571.988 83.971H612.308V73.971H571.988V83.971ZM607.529 77.5005L596.369 113.771L605.927 116.711L617.087 80.4414L607.529 77.5005ZM727.606 57.101L732.387 58.5662L734.368 52.101H727.606V57.101ZM709.786 115.241V120.241H713.483L714.567 116.706L709.786 115.241ZM690.256 115.241L685.473 113.785L683.508 120.241H690.256V115.241ZM695.926 96.611L700.71 98.0668L702.674 91.611H695.926V96.611ZM675.046 96.611V91.611H671.342L670.263 95.1552L675.046 96.611ZM669.376 115.241V120.241H673.081L674.16 116.697L669.376 115.241ZM649.846 115.241L645.067 113.772L643.079 120.241H649.846V115.241ZM665.056 65.741L669.836 67.2096L670.526 64.9628L669.237 62.9977L665.056 65.741ZM659.386 57.101V52.101H650.125L655.206 59.8442L659.386 57.101ZM682.786 71.591V66.591H679.084L678.004 70.1319L682.786 71.591ZM679.546 82.211L674.764 80.7519L672.793 87.211H679.546V82.211ZM700.426 82.211V87.211H704.128L705.209 83.67L700.426 82.211ZM703.666 71.591L708.449 73.05L710.419 66.591H703.666V71.591ZM722.826 55.6357L705.006 113.776L714.567 116.706L732.387 58.5662L722.826 55.6357ZM709.786 110.241H690.256V120.241H709.786V110.241ZM695.04 116.697L700.71 98.0668L691.143 95.1552L685.473 113.785L695.04 116.697ZM695.926 91.611H675.046V101.611H695.926V91.611ZM670.263 95.1552L664.593 113.785L674.16 116.697L679.83 98.0668L670.263 95.1552ZM669.376 110.241H649.846V120.241H669.376V110.241ZM654.626 116.71L669.836 67.2096L660.277 64.2724L645.067 113.772L654.626 116.71ZM669.237 62.9977L663.567 54.3577L655.206 59.8442L660.876 68.4842L669.237 62.9977ZM659.386 62.101H727.606V52.101H659.386V62.101ZM678.004 70.1319L674.764 80.7519L684.329 83.67L687.569 73.05L678.004 70.1319ZM679.546 87.211H700.426V77.211H679.546V87.211ZM705.209 83.67L708.449 73.05L698.884 70.1319L695.644 80.7519L705.209 83.67ZM703.666 66.591H682.786V76.591H703.666V66.591ZM797.086 57.101L801.864 58.573L803.858 52.101H797.086V57.101ZM785.386 95.081V100.081H789.077L790.164 96.553L785.386 95.081ZM774.676 95.081V90.081H768.436L769.796 96.1702L774.676 95.081ZM779.176 115.241V120.241H785.415L784.055 114.152L779.176 115.241ZM759.556 115.241L754.69 116.392L755.601 120.241H759.556V115.241ZM754.786 95.081L759.651 93.9297L758.741 90.081H754.786V95.081ZM745.066 95.081V90.081H741.374L740.287 93.609L745.066 95.081ZM738.856 115.241V120.241H742.547L743.634 116.713L738.856 115.241ZM719.326 115.241L714.546 113.772L712.558 120.241H719.326V115.241ZM734.536 65.741L739.315 67.2096L740.005 64.9628L738.716 62.9977L734.536 65.741ZM728.866 57.101V52.101H719.604L724.685 59.8442L728.866 57.101ZM752.266 71.591V66.591H748.605L747.499 70.0808L752.266 71.591ZM749.386 80.681L744.619 79.1708L742.556 85.681H749.386V80.681ZM770.266 80.681V85.681H773.926L775.032 82.1911L770.266 80.681ZM773.146 71.591L777.912 73.1011L779.975 66.591H773.146V71.591ZM792.307 55.6289L780.607 93.6089L790.164 96.553L801.864 58.573L792.307 55.6289ZM785.386 90.081H774.676V100.081H785.386V90.081ZM769.796 96.1702L774.296 116.33L784.055 114.152L779.555 93.9917L769.796 96.1702ZM779.176 110.241H759.556V120.241H779.176V110.241ZM764.421 114.09L759.651 93.9297L749.92 96.2322L754.69 116.392L764.421 114.09ZM754.786 90.081H745.066V100.081H754.786V90.081ZM740.287 93.609L734.077 113.769L743.634 116.713L749.844 96.5529L740.287 93.609ZM738.856 110.241H719.326V120.241H738.856V110.241ZM724.105 116.71L739.315 67.2096L729.756 64.2724L714.546 113.772L724.105 116.71ZM738.716 62.9977L733.046 54.3577L724.685 59.8442L730.355 68.4842L738.716 62.9977ZM728.866 62.101H797.086V52.101H728.866V62.101ZM747.499 70.0808L744.619 79.1708L754.152 82.1911L757.032 73.1011L747.499 70.0808ZM749.386 85.681H770.266V75.681H749.386V85.681ZM775.032 82.1911L777.912 73.1011L768.379 70.0808L765.499 79.1708L775.032 82.1911ZM773.146 66.591H752.266V76.591H773.146V66.591ZM821.745 71.591V66.591H818.052L816.966 70.1205L821.745 71.591ZM812.745 100.841L807.966 99.3705L805.975 105.841H812.745V100.841ZM852.885 100.841L857.666 102.305L859.645 95.841H852.885V100.841ZM848.475 115.241V120.241H852.173L853.256 116.705L848.475 115.241ZM788.805 115.241L784.025 113.772L782.038 120.241H788.805V115.241ZM804.015 65.741L808.794 67.2096L809.485 64.9628L808.195 62.9977L804.015 65.741ZM798.345 57.101V52.101H789.083L794.165 59.8442L798.345 57.101ZM866.385 57.101L871.16 58.5839L873.173 52.101H866.385V57.101ZM861.885 71.591V76.591H865.568L866.66 73.0739L861.885 71.591ZM816.966 70.1205L807.966 99.3705L817.524 102.311L826.524 73.0614L816.966 70.1205ZM812.745 105.841H852.885V95.841H812.745V105.841ZM848.104 99.3768L843.694 113.777L853.256 116.705L857.666 102.305L848.104 99.3768ZM848.475 110.241H788.805V120.241H848.475V110.241ZM793.584 116.71L808.794 67.2096L799.235 64.2724L784.025 113.772L793.584 116.71ZM808.195 62.9977L802.525 54.3577L794.165 59.8442L799.835 68.4842L808.195 62.9977ZM798.345 62.101H866.385V52.101H798.345V62.101ZM861.61 55.618L857.11 70.108L866.66 73.0739L871.16 58.5839L861.61 55.618ZM861.885 66.591H821.745V76.591H861.885V66.591ZM935.868 57.101L940.649 58.5662L942.63 52.101H935.868V57.101ZM918.048 115.241V120.241H921.745L922.829 116.706L918.048 115.241ZM898.518 115.241L893.735 113.785L891.77 120.241H898.518V115.241ZM904.188 96.611L908.972 98.0668L910.937 91.611H904.188V96.611ZM883.308 96.611V91.611H879.604L878.525 95.1552L883.308 96.611ZM877.638 115.241V120.241H881.343L882.422 116.697L877.638 115.241ZM858.108 115.241L853.329 113.772L851.341 120.241H858.108V115.241ZM873.318 65.741L878.098 67.2096L878.788 64.9628L877.499 62.9977L873.318 65.741ZM867.648 57.101V52.101H858.387L863.468 59.8442L867.648 57.101ZM891.048 71.591V66.591H887.346L886.266 70.1319L891.048 71.591ZM887.808 82.211L883.026 80.7519L881.055 87.211H887.808V82.211ZM908.688 82.211V87.211H912.391L913.471 83.67L908.688 82.211ZM911.928 71.591L916.711 73.05L918.681 66.591H911.928V71.591ZM931.088 55.6357L913.268 113.776L922.829 116.706L940.649 58.5662L931.088 55.6357ZM918.048 110.241H898.518V120.241H918.048V110.241ZM903.302 116.697L908.972 98.0668L899.405 95.1552L893.735 113.785L903.302 116.697ZM904.188 91.611H883.308V101.611H904.188V91.611ZM878.525 95.1552L872.855 113.785L882.422 116.697L888.092 98.0668L878.525 95.1552ZM877.638 110.241H858.108V120.241H877.638V110.241ZM862.888 116.71L878.098 67.2096L868.539 64.2724L853.329 113.772L862.888 116.71ZM877.499 62.9977L871.829 54.3577L863.468 59.8442L869.138 68.4842L877.499 62.9977ZM867.648 62.101H935.868V52.101H867.648V62.101ZM886.266 70.1319L883.026 80.7519L892.591 83.67L895.831 73.05L886.266 70.1319ZM887.808 87.211H908.688V77.211H887.808V87.211ZM913.471 83.67L916.711 73.05L907.146 70.1319L903.906 80.7519L913.471 83.67ZM911.928 66.591H891.048V76.591H911.928V66.591ZM927.588 115.241L922.808 113.772L920.821 120.241H927.588V115.241ZM942.798 65.741L947.577 67.2096L948.268 64.9628L946.978 62.9977L942.798 65.741ZM937.128 57.101V52.101H927.866L932.947 59.8442L937.128 57.101ZM1005.35 57.101L1010.13 58.5639L1012.11 52.101H1005.35V57.101ZM992.928 97.691L995.928 101.691L997.232 100.713L997.709 99.1539L992.928 97.691ZM969.528 115.241V120.241H971.194L972.528 119.241L969.528 115.241ZM981.408 71.591L986.18 73.081L988.207 66.591H981.408V71.591ZM960.528 71.591V66.591H956.835L955.749 70.1205L960.528 71.591ZM951.528 100.841L946.749 99.3705L944.758 105.841H951.528V100.841ZM961.968 100.841V105.841H963.703L965.066 104.765L961.968 100.841ZM975.648 90.041L978.746 93.9654L979.96 93.0072L980.421 91.531L975.648 90.041ZM932.367 116.71L947.577 67.2096L938.018 64.2724L922.808 113.772L932.367 116.71ZM946.978 62.9977L941.308 54.3577L932.947 59.8442L938.617 68.4842L946.978 62.9977ZM937.128 62.101H1005.35V52.101H937.128V62.101ZM1000.57 55.638L988.146 96.228L997.709 99.1539L1010.13 58.5639L1000.57 55.638ZM989.928 93.691L966.528 111.241L972.528 119.241L995.928 101.691L989.928 93.691ZM969.528 110.241H927.588V120.241H969.528V110.241ZM981.408 66.591H960.528V76.591H981.408V66.591ZM955.749 70.1205L946.749 99.3705L956.307 102.311L965.307 73.0614L955.749 70.1205ZM951.528 105.841H961.968V95.841H951.528V105.841ZM965.066 104.765L978.746 93.9654L972.549 86.1166L958.869 96.9165L965.066 104.765ZM980.421 91.531L986.18 73.081L976.635 70.1009L970.875 88.5509L980.421 91.531ZM1030.09 71.591V66.591H1026.39L1025.31 70.1328L1030.09 71.591ZM1027.84 78.971L1023.06 77.5128L1021.09 83.971H1027.84V78.971ZM1068.25 78.971L1073.03 80.4623L1075.06 73.971H1068.25V78.971ZM1063.75 93.371V98.371H1067.43L1068.53 94.8623L1063.75 93.371ZM1023.34 93.371V88.371H1019.63L1018.56 91.9289L1023.34 93.371ZM1021.09 100.841L1016.31 99.3989L1014.37 105.841H1021.09V100.841ZM1061.41 100.841L1066.2 102.278L1068.14 95.841H1061.41V100.841ZM1057.09 115.241V120.241H1060.81L1061.88 116.678L1057.09 115.241ZM997.155 115.241L992.375 113.772L990.388 120.241H997.155V115.241ZM1012.36 65.741L1017.14 67.2096L1017.83 64.9628L1016.55 62.9977L1012.36 65.741ZM1006.69 57.101V52.101H997.433L1002.51 59.8442L1006.69 57.101ZM1074.91 57.101L1079.69 58.5839L1081.7 52.101H1074.91V57.101ZM1070.41 71.591V76.591H1074.1L1075.19 73.0739L1070.41 71.591ZM1025.31 70.1328L1023.06 77.5128L1032.63 80.4291L1034.88 73.0491L1025.31 70.1328ZM1027.84 83.971H1068.25V73.971H1027.84V83.971ZM1063.48 77.4796L1058.98 91.8796L1068.53 94.8623L1073.03 80.4623L1063.48 77.4796ZM1063.75 88.371H1023.34V98.371H1063.75V88.371ZM1018.56 91.9289L1016.31 99.3989L1025.88 102.283L1028.13 94.813L1018.56 91.9289ZM1021.09 105.841H1061.41V95.841H1021.09V105.841ZM1056.63 99.4042L1052.31 113.804L1061.88 116.678L1066.2 102.278L1056.63 99.4042ZM1057.09 110.241H997.155V120.241H1057.09V110.241ZM1001.93 116.71L1017.14 67.2096L1007.59 64.2724L992.375 113.772L1001.93 116.71ZM1016.55 62.9977L1010.88 54.3577L1002.51 59.8442L1008.18 68.4842L1016.55 62.9977ZM1006.69 62.101H1074.91V52.101H1006.69V62.101ZM1070.14 55.618L1065.64 70.108L1075.19 73.0739L1079.69 58.5839L1070.14 55.618ZM1070.41 66.591H1030.09V76.591H1070.41V66.591Z" fill="url(#paint0_linear_96_727)" fill-opacity="0.5" mask="url(#path-3-outside-1_96_727)"/>
<path d="M221.698 71.591V66.591H217.995L216.915 70.1328L221.698 71.591ZM219.448 78.971L214.665 77.5128L212.696 83.971H219.448V78.971ZM259.768 78.971L264.54 80.4623L266.569 73.971H259.768V78.971ZM255.268 93.371V98.371H258.944L260.04 94.8623L255.268 93.371ZM214.948 93.371V88.371H211.244L210.165 91.9144L214.948 93.371ZM208.288 115.241V120.241H211.992L213.071 116.698L208.288 115.241ZM188.758 115.241L183.979 113.772L181.991 120.241H188.758V115.241ZM203.968 65.741L208.747 67.2096L209.438 64.9628L208.148 62.9977L203.968 65.741ZM198.298 57.101V52.101H189.036L194.118 59.8442L198.298 57.101ZM266.428 57.101L271.211 58.5568L273.176 52.101H266.428V57.101ZM262.018 71.591V76.591H265.723L266.801 73.0468L262.018 71.591ZM216.915 70.1328L214.665 77.5128L224.231 80.4291L226.481 73.0491L216.915 70.1328ZM219.448 83.971H259.768V73.971H219.448V83.971ZM254.996 77.4796L250.496 91.8796L260.04 94.8623L264.54 80.4623L254.996 77.4796ZM255.268 88.371H214.948V98.371H255.268V88.371ZM210.165 91.9144L203.505 113.784L213.071 116.698L219.731 94.8276L210.165 91.9144ZM208.288 110.241H188.758V120.241H208.288V110.241ZM193.537 116.71L208.747 67.2096L199.189 64.2724L183.979 113.772L193.537 116.71ZM208.148 62.9977L202.478 54.3577L194.118 59.8442L199.788 68.4842L208.148 62.9977ZM198.298 62.101H266.428V52.101H198.298V62.101ZM261.645 55.6452L257.235 70.1352L266.801 73.0468L271.211 58.5568L261.645 55.6452ZM262.018 66.591H221.698V76.591H262.018V66.591ZM295.587 57.101L300.368 58.5666L302.35 52.101H295.587V57.101ZM282.177 100.841L277.397 99.3754L275.415 105.841H282.177V100.841ZM319.437 100.841L324.218 102.305L326.198 95.841H319.437V100.841ZM315.027 115.241V120.241H318.725L319.808 116.705L315.027 115.241ZM258.237 115.241L253.458 113.772L251.47 120.241H258.237V115.241ZM273.447 65.741L278.227 67.2096L278.917 64.9628L277.628 62.9977L273.447 65.741ZM267.777 57.101V52.101H258.516L263.597 59.8442L267.777 57.101ZM290.807 55.6354L277.397 99.3754L286.958 102.307L300.368 58.5666L290.807 55.6354ZM282.177 105.841H319.437V95.841H282.177V105.841ZM314.656 99.3768L310.246 113.777L319.808 116.705L324.218 102.305L314.656 99.3768ZM315.027 110.241H258.237V120.241H315.027V110.241ZM263.017 116.71L278.227 67.2096L268.668 64.2724L253.458 113.772L263.017 116.71ZM277.628 62.9977L271.958 54.3577L263.597 59.8442L269.267 68.4842L277.628 62.9977ZM267.777 62.101H295.587V52.101H267.777V62.101ZM389.305 57.101L394.086 58.565L396.065 52.101H389.305V57.101ZM383.545 75.911L386.564 79.8962L387.852 78.9202L388.326 77.375L383.545 75.911ZM357.175 95.891L354.155 91.9057L352.869 92.8805L352.395 94.4237L357.175 95.891ZM351.235 115.241V120.241H354.93L356.015 116.708L351.235 115.241ZM331.705 115.241L326.925 113.774L324.94 120.241H331.705V115.241ZM337.645 95.891L342.425 97.3583L343.143 95.0187L341.736 93.0162L337.645 95.891ZM323.605 75.911L318.829 74.4316L318.102 76.7769L319.514 78.7857L323.605 75.911ZM326.755 65.741L331.531 67.2203L332.228 64.9685L330.935 62.9977L326.755 65.741ZM321.085 57.101V52.101H311.823L316.904 59.8442L321.085 57.101ZM348.895 57.101L353.675 58.566L355.656 52.101H348.895V57.101ZM345.475 68.261L340.694 66.796L339.996 69.0736L341.325 71.0505L345.475 68.261ZM352.675 78.971L348.525 81.7605L351.524 86.2217L355.757 82.9079L352.675 78.971ZM366.355 68.261L369.437 72.1979L370.675 71.2289L371.135 69.726L366.355 68.261ZM369.775 57.101V52.101H366.077L364.994 55.636L369.775 57.101ZM384.524 55.637L378.764 74.447L388.326 77.375L394.086 58.565L384.524 55.637ZM380.525 71.9257L354.155 91.9057L360.194 99.8762L386.564 79.8962L380.525 71.9257ZM352.395 94.4237L346.455 113.774L356.015 116.708L361.955 97.3583L352.395 94.4237ZM351.235 110.241H331.705V120.241H351.235V110.241ZM336.485 116.708L342.425 97.3583L332.865 94.4237L326.925 113.774L336.485 116.708ZM341.736 93.0162L327.696 73.0362L319.514 78.7857L333.554 98.7657L341.736 93.0162ZM328.381 77.3903L331.531 67.2203L321.979 64.2616L318.829 74.4316L328.381 77.3903ZM330.935 62.9977L325.265 54.3577L316.904 59.8442L322.574 68.4842L330.935 62.9977ZM321.085 62.101H348.895V52.101H321.085V62.101ZM344.114 55.636L340.694 66.796L350.255 69.726L353.675 58.566L344.114 55.636ZM341.325 71.0505L348.525 81.7605L356.824 76.1814L349.624 65.4714L341.325 71.0505ZM355.757 82.9079L369.437 72.1979L363.272 64.324L349.592 75.034L355.757 82.9079ZM371.135 69.726L374.555 58.566L364.994 55.636L361.574 66.796L371.135 69.726ZM369.775 62.101H389.305V52.101H369.775V62.101ZM396.322 65.741L401.101 67.2096L401.792 64.9628L400.502 62.9977L396.322 65.741ZM390.652 57.101V52.101H381.39L386.472 59.8442L390.652 57.101ZM418.192 57.101L422.655 54.8464L421.268 52.101H418.192V57.101ZM431.332 83.111L426.869 85.3655L432.461 96.4339L436.11 84.5826L431.332 83.111ZM439.342 57.101V52.101H435.65L434.563 55.6294L439.342 57.101ZM458.872 57.101L463.652 58.5662L465.634 52.101H458.872V57.101ZM441.052 115.241V120.241H444.749L445.832 116.706L441.052 115.241ZM421.792 115.241L417.329 117.496L418.716 120.241H421.792V115.241ZM408.652 89.231L413.115 86.9764L407.523 75.908L403.873 87.7594L408.652 89.231ZM400.642 115.241V120.241H404.334L405.42 116.713L400.642 115.241ZM381.112 115.241L376.332 113.772L374.345 120.241H381.112V115.241ZM400.502 62.9977L394.832 54.3577L386.472 59.8442L392.142 68.4842L400.502 62.9977ZM390.652 62.101H418.192V52.101H390.652V62.101ZM413.729 59.3555L426.869 85.3655L435.795 80.8564L422.655 54.8464L413.729 59.3555ZM436.11 84.5826L444.12 58.5726L434.563 55.6294L426.553 81.6394L436.11 84.5826ZM439.342 62.101H458.872V52.101H439.342V62.101ZM454.091 55.6357L436.271 113.776L445.832 116.706L463.652 58.5662L454.091 55.6357ZM441.052 110.241H421.792V120.241H441.052V110.241ZM426.255 112.986L413.115 86.9764L404.189 91.4855L417.329 117.496L426.255 112.986ZM403.873 87.7594L395.863 113.769L405.42 116.713L413.43 90.7026L403.873 87.7594ZM400.642 110.241H381.112V120.241H400.642V110.241ZM385.891 116.71L401.101 67.2096L391.542 64.2724L376.332 113.772L385.891 116.71ZM465.889 65.741L470.669 67.2096L471.359 64.9628L470.069 62.9977L465.889 65.741ZM460.219 57.101V52.101H450.957L456.039 59.8442L460.219 57.101ZM487.759 57.101L492.222 54.8464L490.835 52.101H487.759V57.101ZM500.899 83.111L496.436 85.3655L502.028 96.4339L505.678 84.5826L500.899 83.111ZM508.909 57.101V52.101H505.217L504.131 55.6294L508.909 57.101ZM528.439 57.101L533.22 58.5662L535.201 52.101H528.439V57.101ZM510.619 115.241V120.241H514.316L515.4 116.706L510.619 115.241ZM491.359 115.241L486.896 117.496L488.283 120.241H491.359V115.241ZM478.219 89.231L482.682 86.9764L477.09 75.908L473.441 87.7594L478.219 89.231ZM470.209 115.241V120.241H473.901L474.988 116.713L470.209 115.241ZM450.679 115.241L445.9 113.772L443.912 120.241H450.679V115.241ZM470.069 62.9977L464.399 54.3577L456.039 59.8442L461.709 68.4842L470.069 62.9977ZM460.219 62.101H487.759V52.101H460.219V62.101ZM483.296 59.3555L496.436 85.3655L505.362 80.8564L492.222 54.8464L483.296 59.3555ZM505.678 84.5826L513.688 58.5726L504.131 55.6294L496.121 81.6394L505.678 84.5826ZM508.909 62.101H528.439V52.101H508.909V62.101ZM523.659 55.6357L505.839 113.776L515.4 116.706L533.22 58.5662L523.659 55.6357ZM510.619 110.241H491.359V120.241H510.619V110.241ZM495.822 112.986L482.682 86.9764L473.756 91.4855L486.896 117.496L495.822 112.986ZM473.441 87.7594L465.431 113.769L474.988 116.713L482.998 90.7026L473.441 87.7594ZM470.209 110.241H450.679V120.241H470.209V110.241ZM455.459 116.71L470.669 67.2096L461.11 64.2724L445.9 113.772L455.459 116.71ZM527.446 71.591L522.674 70.0996L520.645 76.591H527.446V71.591ZM531.946 57.191V52.191H528.27L527.174 55.6996L531.946 57.191ZM551.566 57.191L556.339 58.6823L558.367 52.191H551.566V57.191ZM547.066 71.591L550.648 75.0795L551.482 74.2232L551.839 73.0823L547.066 71.591ZM536.986 81.941V86.941H539.096L540.568 85.4295L536.986 81.941ZM533.566 81.941L528.783 80.4852L526.818 86.941H533.566V81.941ZM536.716 71.591L541.5 73.0468L543.464 66.591H536.716V71.591ZM532.219 73.0823L536.719 58.6823L527.174 55.6996L522.674 70.0996L532.219 73.0823ZM531.946 62.191H551.566V52.191H531.946V62.191ZM546.794 55.6996L542.294 70.0996L551.839 73.0823L556.339 58.6823L546.794 55.6996ZM543.484 68.1025L533.404 78.4525L540.568 85.4295L550.648 75.0795L543.484 68.1025ZM536.986 76.941H533.566V86.941H536.986V76.941ZM538.35 83.3968L541.5 73.0468L531.933 70.1352L528.783 80.4852L538.35 83.3968ZM536.716 66.591H527.446V76.591H536.716V66.591ZM601.148 115.241V120.241H604.841L605.927 116.711L601.148 115.241ZM541.298 115.241L536.517 113.777L534.537 120.241H541.298V115.241ZM545.708 100.841V95.841H542.01L540.927 99.3768L545.708 100.841ZM586.028 100.841V105.841H589.744L590.815 102.283L586.028 100.841ZM588.278 93.371L593.065 94.813L595.006 88.371H588.278V93.371ZM547.958 93.371L543.181 91.8929L541.177 98.371H547.958V93.371ZM556.508 65.741L561.284 67.219L561.981 64.9678L560.688 62.9977L556.508 65.741ZM550.838 57.101V52.101H541.576L546.658 59.8442L550.838 57.101ZM618.968 57.101L623.751 58.5568L625.716 52.101H618.968V57.101ZM614.558 71.591V76.591H618.263L619.341 73.0468L614.558 71.591ZM574.238 71.591V66.591H570.535L569.455 70.1328L574.238 71.591ZM571.988 78.971L567.205 77.5128L565.236 83.971H571.988V78.971ZM612.308 78.971L617.087 80.4414L619.078 73.971H612.308V78.971ZM601.148 110.241H541.298V120.241H601.148V110.241ZM546.079 116.705L550.489 102.305L540.927 99.3768L536.517 113.777L546.079 116.705ZM545.708 105.841H586.028V95.841H545.708V105.841ZM590.815 102.283L593.065 94.813L583.49 91.9289L581.24 99.3989L590.815 102.283ZM588.278 88.371H547.958V98.371H588.278V88.371ZM552.734 94.849L561.284 67.219L551.731 64.2629L543.181 91.8929L552.734 94.849ZM560.688 62.9977L555.018 54.3577L546.658 59.8442L552.328 68.4842L560.688 62.9977ZM550.838 62.101H618.968V52.101H550.838V62.101ZM614.184 55.6452L609.774 70.1352L619.341 73.0468L623.751 58.5568L614.184 55.6452ZM614.558 66.591H574.238V76.591H614.558V66.591ZM569.455 70.1328L567.205 77.5128L576.771 80.4291L579.021 73.0491L569.455 70.1328ZM571.988 83.971H612.308V73.971H571.988V83.971ZM607.529 77.5005L596.369 113.771L605.927 116.711L617.087 80.4414L607.529 77.5005ZM727.606 57.101L732.387 58.5662L734.368 52.101H727.606V57.101ZM709.786 115.241V120.241H713.483L714.567 116.706L709.786 115.241ZM690.256 115.241L685.473 113.785L683.508 120.241H690.256V115.241ZM695.926 96.611L700.71 98.0668L702.674 91.611H695.926V96.611ZM675.046 96.611V91.611H671.342L670.263 95.1552L675.046 96.611ZM669.376 115.241V120.241H673.081L674.16 116.697L669.376 115.241ZM649.846 115.241L645.067 113.772L643.079 120.241H649.846V115.241ZM665.056 65.741L669.836 67.2096L670.526 64.9628L669.237 62.9977L665.056 65.741ZM659.386 57.101V52.101H650.125L655.206 59.8442L659.386 57.101ZM682.786 71.591V66.591H679.084L678.004 70.1319L682.786 71.591ZM679.546 82.211L674.764 80.7519L672.793 87.211H679.546V82.211ZM700.426 82.211V87.211H704.128L705.209 83.67L700.426 82.211ZM703.666 71.591L708.449 73.05L710.419 66.591H703.666V71.591ZM722.826 55.6357L705.006 113.776L714.567 116.706L732.387 58.5662L722.826 55.6357ZM709.786 110.241H690.256V120.241H709.786V110.241ZM695.04 116.697L700.71 98.0668L691.143 95.1552L685.473 113.785L695.04 116.697ZM695.926 91.611H675.046V101.611H695.926V91.611ZM670.263 95.1552L664.593 113.785L674.16 116.697L679.83 98.0668L670.263 95.1552ZM669.376 110.241H649.846V120.241H669.376V110.241ZM654.626 116.71L669.836 67.2096L660.277 64.2724L645.067 113.772L654.626 116.71ZM669.237 62.9977L663.567 54.3577L655.206 59.8442L660.876 68.4842L669.237 62.9977ZM659.386 62.101H727.606V52.101H659.386V62.101ZM678.004 70.1319L674.764 80.7519L684.329 83.67L687.569 73.05L678.004 70.1319ZM679.546 87.211H700.426V77.211H679.546V87.211ZM705.209 83.67L708.449 73.05L698.884 70.1319L695.644 80.7519L705.209 83.67ZM703.666 66.591H682.786V76.591H703.666V66.591ZM797.086 57.101L801.864 58.573L803.858 52.101H797.086V57.101ZM785.386 95.081V100.081H789.077L790.164 96.553L785.386 95.081ZM774.676 95.081V90.081H768.436L769.796 96.1702L774.676 95.081ZM779.176 115.241V120.241H785.415L784.055 114.152L779.176 115.241ZM759.556 115.241L754.69 116.392L755.601 120.241H759.556V115.241ZM754.786 95.081L759.651 93.9297L758.741 90.081H754.786V95.081ZM745.066 95.081V90.081H741.374L740.287 93.609L745.066 95.081ZM738.856 115.241V120.241H742.547L743.634 116.713L738.856 115.241ZM719.326 115.241L714.546 113.772L712.558 120.241H719.326V115.241ZM734.536 65.741L739.315 67.2096L740.005 64.9628L738.716 62.9977L734.536 65.741ZM728.866 57.101V52.101H719.604L724.685 59.8442L728.866 57.101ZM752.266 71.591V66.591H748.605L747.499 70.0808L752.266 71.591ZM749.386 80.681L744.619 79.1708L742.556 85.681H749.386V80.681ZM770.266 80.681V85.681H773.926L775.032 82.1911L770.266 80.681ZM773.146 71.591L777.912 73.1011L779.975 66.591H773.146V71.591ZM792.307 55.6289L780.607 93.6089L790.164 96.553L801.864 58.573L792.307 55.6289ZM785.386 90.081H774.676V100.081H785.386V90.081ZM769.796 96.1702L774.296 116.33L784.055 114.152L779.555 93.9917L769.796 96.1702ZM779.176 110.241H759.556V120.241H779.176V110.241ZM764.421 114.09L759.651 93.9297L749.92 96.2322L754.69 116.392L764.421 114.09ZM754.786 90.081H745.066V100.081H754.786V90.081ZM740.287 93.609L734.077 113.769L743.634 116.713L749.844 96.5529L740.287 93.609ZM738.856 110.241H719.326V120.241H738.856V110.241ZM724.105 116.71L739.315 67.2096L729.756 64.2724L714.546 113.772L724.105 116.71ZM738.716 62.9977L733.046 54.3577L724.685 59.8442L730.355 68.4842L738.716 62.9977ZM728.866 62.101H797.086V52.101H728.866V62.101ZM747.499 70.0808L744.619 79.1708L754.152 82.1911L757.032 73.1011L747.499 70.0808ZM749.386 85.681H770.266V75.681H749.386V85.681ZM775.032 82.1911L777.912 73.1011L768.379 70.0808L765.499 79.1708L775.032 82.1911ZM773.146 66.591H752.266V76.591H773.146V66.591ZM821.745 71.591V66.591H818.052L816.966 70.1205L821.745 71.591ZM812.745 100.841L807.966 99.3705L805.975 105.841H812.745V100.841ZM852.885 100.841L857.666 102.305L859.645 95.841H852.885V100.841ZM848.475 115.241V120.241H852.173L853.256 116.705L848.475 115.241ZM788.805 115.241L784.025 113.772L782.038 120.241H788.805V115.241ZM804.015 65.741L808.794 67.2096L809.485 64.9628L808.195 62.9977L804.015 65.741ZM798.345 57.101V52.101H789.083L794.165 59.8442L798.345 57.101ZM866.385 57.101L871.16 58.5839L873.173 52.101H866.385V57.101ZM861.885 71.591V76.591H865.568L866.66 73.0739L861.885 71.591ZM816.966 70.1205L807.966 99.3705L817.524 102.311L826.524 73.0614L816.966 70.1205ZM812.745 105.841H852.885V95.841H812.745V105.841ZM848.104 99.3768L843.694 113.777L853.256 116.705L857.666 102.305L848.104 99.3768ZM848.475 110.241H788.805V120.241H848.475V110.241ZM793.584 116.71L808.794 67.2096L799.235 64.2724L784.025 113.772L793.584 116.71ZM808.195 62.9977L802.525 54.3577L794.165 59.8442L799.835 68.4842L808.195 62.9977ZM798.345 62.101H866.385V52.101H798.345V62.101ZM861.61 55.618L857.11 70.108L866.66 73.0739L871.16 58.5839L861.61 55.618ZM861.885 66.591H821.745V76.591H861.885V66.591ZM935.868 57.101L940.649 58.5662L942.63 52.101H935.868V57.101ZM918.048 115.241V120.241H921.745L922.829 116.706L918.048 115.241ZM898.518 115.241L893.735 113.785L891.77 120.241H898.518V115.241ZM904.188 96.611L908.972 98.0668L910.937 91.611H904.188V96.611ZM883.308 96.611V91.611H879.604L878.525 95.1552L883.308 96.611ZM877.638 115.241V120.241H881.343L882.422 116.697L877.638 115.241ZM858.108 115.241L853.329 113.772L851.341 120.241H858.108V115.241ZM873.318 65.741L878.098 67.2096L878.788 64.9628L877.499 62.9977L873.318 65.741ZM867.648 57.101V52.101H858.387L863.468 59.8442L867.648 57.101ZM891.048 71.591V66.591H887.346L886.266 70.1319L891.048 71.591ZM887.808 82.211L883.026 80.7519L881.055 87.211H887.808V82.211ZM908.688 82.211V87.211H912.391L913.471 83.67L908.688 82.211ZM911.928 71.591L916.711 73.05L918.681 66.591H911.928V71.591ZM931.088 55.6357L913.268 113.776L922.829 116.706L940.649 58.5662L931.088 55.6357ZM918.048 110.241H898.518V120.241H918.048V110.241ZM903.302 116.697L908.972 98.0668L899.405 95.1552L893.735 113.785L903.302 116.697ZM904.188 91.611H883.308V101.611H904.188V91.611ZM878.525 95.1552L872.855 113.785L882.422 116.697L888.092 98.0668L878.525 95.1552ZM877.638 110.241H858.108V120.241H877.638V110.241ZM862.888 116.71L878.098 67.2096L868.539 64.2724L853.329 113.772L862.888 116.71ZM877.499 62.9977L871.829 54.3577L863.468 59.8442L869.138 68.4842L877.499 62.9977ZM867.648 62.101H935.868V52.101H867.648V62.101ZM886.266 70.1319L883.026 80.7519L892.591 83.67L895.831 73.05L886.266 70.1319ZM887.808 87.211H908.688V77.211H887.808V87.211ZM913.471 83.67L916.711 73.05L907.146 70.1319L903.906 80.7519L913.471 83.67ZM911.928 66.591H891.048V76.591H911.928V66.591ZM927.588 115.241L922.808 113.772L920.821 120.241H927.588V115.241ZM942.798 65.741L947.577 67.2096L948.268 64.9628L946.978 62.9977L942.798 65.741ZM937.128 57.101V52.101H927.866L932.947 59.8442L937.128 57.101ZM1005.35 57.101L1010.13 58.5639L1012.11 52.101H1005.35V57.101ZM992.928 97.691L995.928 101.691L997.232 100.713L997.709 99.1539L992.928 97.691ZM969.528 115.241V120.241H971.194L972.528 119.241L969.528 115.241ZM981.408 71.591L986.18 73.081L988.207 66.591H981.408V71.591ZM960.528 71.591V66.591H956.835L955.749 70.1205L960.528 71.591ZM951.528 100.841L946.749 99.3705L944.758 105.841H951.528V100.841ZM961.968 100.841V105.841H963.703L965.066 104.765L961.968 100.841ZM975.648 90.041L978.746 93.9654L979.96 93.0072L980.421 91.531L975.648 90.041ZM932.367 116.71L947.577 67.2096L938.018 64.2724L922.808 113.772L932.367 116.71ZM946.978 62.9977L941.308 54.3577L932.947 59.8442L938.617 68.4842L946.978 62.9977ZM937.128 62.101H1005.35V52.101H937.128V62.101ZM1000.57 55.638L988.146 96.228L997.709 99.1539L1010.13 58.5639L1000.57 55.638ZM989.928 93.691L966.528 111.241L972.528 119.241L995.928 101.691L989.928 93.691ZM969.528 110.241H927.588V120.241H969.528V110.241ZM981.408 66.591H960.528V76.591H981.408V66.591ZM955.749 70.1205L946.749 99.3705L956.307 102.311L965.307 73.0614L955.749 70.1205ZM951.528 105.841H961.968V95.841H951.528V105.841ZM965.066 104.765L978.746 93.9654L972.549 86.1166L958.869 96.9165L965.066 104.765ZM980.421 91.531L986.18 73.081L976.635 70.1009L970.875 88.5509L980.421 91.531ZM1030.09 71.591V66.591H1026.39L1025.31 70.1328L1030.09 71.591ZM1027.84 78.971L1023.06 77.5128L1021.09 83.971H1027.84V78.971ZM1068.25 78.971L1073.03 80.4623L1075.06 73.971H1068.25V78.971ZM1063.75 93.371V98.371H1067.43L1068.53 94.8623L1063.75 93.371ZM1023.34 93.371V88.371H1019.63L1018.56 91.9289L1023.34 93.371ZM1021.09 100.841L1016.31 99.3989L1014.37 105.841H1021.09V100.841ZM1061.41 100.841L1066.2 102.278L1068.14 95.841H1061.41V100.841ZM1057.09 115.241V120.241H1060.81L1061.88 116.678L1057.09 115.241ZM997.155 115.241L992.375 113.772L990.388 120.241H997.155V115.241ZM1012.36 65.741L1017.14 67.2096L1017.83 64.9628L1016.55 62.9977L1012.36 65.741ZM1006.69 57.101V52.101H997.433L1002.51 59.8442L1006.69 57.101ZM1074.91 57.101L1079.69 58.5839L1081.7 52.101H1074.91V57.101ZM1070.41 71.591V76.591H1074.1L1075.19 73.0739L1070.41 71.591ZM1025.31 70.1328L1023.06 77.5128L1032.63 80.4291L1034.88 73.0491L1025.31 70.1328ZM1027.84 83.971H1068.25V73.971H1027.84V83.971ZM1063.48 77.4796L1058.98 91.8796L1068.53 94.8623L1073.03 80.4623L1063.48 77.4796ZM1063.75 88.371H1023.34V98.371H1063.75V88.371ZM1018.56 91.9289L1016.31 99.3989L1025.88 102.283L1028.13 94.813L1018.56 91.9289ZM1021.09 105.841H1061.41V95.841H1021.09V105.841ZM1056.63 99.4042L1052.31 113.804L1061.88 116.678L1066.2 102.278L1056.63 99.4042ZM1057.09 110.241H997.155V120.241H1057.09V110.241ZM1001.93 116.71L1017.14 67.2096L1007.59 64.2724L992.375 113.772L1001.93 116.71ZM1016.55 62.9977L1010.88 54.3577L1002.51 59.8442L1008.18 68.4842L1016.55 62.9977ZM1006.69 62.101H1074.91V52.101H1006.69V62.101ZM1070.14 55.618L1065.64 70.108L1075.19 73.0739L1079.69 58.5839L1070.14 55.618ZM1070.41 66.591H1030.09V76.591H1070.41V66.591Z" fill="url(#paint1_linear_96_727)" fill-opacity="0.75" mask="url(#path-3-outside-1_96_727)"/>
</g>
<g filter="url(#filter3_f_96_727)">
<mask id="path-5-outside-2_96_727" maskUnits="userSpaceOnUse" x="185.5" y="54.241" width="893" height="63" fill="black">
<rect fill="white" x="185.5" y="54.241" width="893" height="63"/>
<path d="M221.698 71.591L219.448 78.971H259.768L255.268 93.371H214.948L208.288 115.241H188.758L203.968 65.741L198.298 57.101H266.428L262.018 71.591H221.698ZM295.587 57.101L282.177 100.841H319.437L315.027 115.241H258.237L273.447 65.741L267.777 57.101H295.587ZM389.305 57.101L383.545 75.911L357.175 95.891L351.235 115.241H331.705L337.645 95.891L323.605 75.911L326.755 65.741L321.085 57.101H348.895L345.475 68.261L352.675 78.971L366.355 68.261L369.775 57.101H389.305ZM396.322 65.741L390.652 57.101H418.192L431.332 83.111L439.342 57.101H458.872L441.052 115.241H421.792L408.652 89.231L400.642 115.241H381.112L396.322 65.741ZM465.889 65.741L460.219 57.101H487.759L500.899 83.111L508.909 57.101H528.439L510.619 115.241H491.359L478.219 89.231L470.209 115.241H450.679L465.889 65.741ZM527.446 71.591L531.946 57.191H551.566L547.066 71.591L536.986 81.941H533.566L536.716 71.591H527.446ZM601.148 115.241H541.298L545.708 100.841H586.028L588.278 93.371H547.958L556.508 65.741L550.838 57.101H618.968L614.558 71.591H574.238L571.988 78.971H612.308L601.148 115.241ZM727.606 57.101L709.786 115.241H690.256L695.926 96.611H675.046L669.376 115.241H649.846L665.056 65.741L659.386 57.101H727.606ZM682.786 71.591L679.546 82.211H700.426L703.666 71.591H682.786ZM797.086 57.101L785.386 95.081H774.676L779.176 115.241H759.556L754.786 95.081H745.066L738.856 115.241H719.326L734.536 65.741L728.866 57.101H797.086ZM752.266 71.591L749.386 80.681H770.266L773.146 71.591H752.266ZM821.745 71.591L812.745 100.841H852.885L848.475 115.241H788.805L804.015 65.741L798.345 57.101H866.385L861.885 71.591H821.745ZM935.868 57.101L918.048 115.241H898.518L904.188 96.611H883.308L877.638 115.241H858.108L873.318 65.741L867.648 57.101H935.868ZM891.048 71.591L887.808 82.211H908.688L911.928 71.591H891.048ZM927.588 115.241L942.798 65.741L937.128 57.101H1005.35L992.928 97.691L969.528 115.241H927.588ZM981.408 71.591H960.528L951.528 100.841H961.968L975.648 90.041L981.408 71.591ZM1030.09 71.591L1027.84 78.971H1068.25L1063.75 93.371H1023.34L1021.09 100.841H1061.41L1057.09 115.241H997.155L1012.36 65.741L1006.69 57.101H1074.91L1070.41 71.591H1030.09Z"/>
</mask>
<path d="M221.698 71.591V69.591H220.217L219.785 71.0077L221.698 71.591ZM219.448 78.971L217.535 78.3877L216.747 80.971H219.448V78.971ZM259.768 78.971L261.677 79.5675L262.488 76.971H259.768V78.971ZM255.268 93.371V95.371H256.738L257.177 93.9675L255.268 93.371ZM214.948 93.371V91.371H213.466L213.035 92.7883L214.948 93.371ZM208.288 115.241V117.241H209.77L210.201 115.824L208.288 115.241ZM188.758 115.241L186.846 114.654L186.051 117.241H188.758V115.241ZM203.968 65.741L205.88 66.3284L206.156 65.4297L205.64 64.6437L203.968 65.741ZM198.298 57.101V55.101H194.593L196.626 58.1983L198.298 57.101ZM266.428 57.101L268.341 57.6833L269.127 55.101H266.428V57.101ZM262.018 71.591V73.591H263.5L263.931 72.1733L262.018 71.591ZM219.785 71.0077L217.535 78.3877L221.361 79.5542L223.611 72.1742L219.785 71.0077ZM219.448 80.971H259.768V76.971H219.448V80.971ZM257.859 78.3744L253.359 92.7744L257.177 93.9675L261.677 79.5675L257.859 78.3744ZM255.268 91.371H214.948V95.371H255.268V91.371ZM213.035 92.7883L206.375 114.658L210.201 115.824L216.861 93.9536L213.035 92.7883ZM208.288 113.241H188.758V117.241H208.288V113.241ZM190.67 115.828L205.88 66.3284L202.056 65.1535L186.846 114.654L190.67 115.828ZM205.64 64.6437L199.97 56.0037L196.626 58.1983L202.296 66.8383L205.64 64.6437ZM198.298 59.101H266.428V55.101H198.298V59.101ZM264.515 56.5186L260.105 71.0086L263.931 72.1733L268.341 57.6833L264.515 56.5186ZM262.018 69.591H221.698V73.591H262.018V69.591ZM295.587 57.101L297.499 57.6872L298.292 55.101H295.587V57.101ZM282.177 100.841L280.265 100.255L279.472 102.841H282.177V100.841ZM319.437 100.841L321.35 101.427L322.141 98.841H319.437V100.841ZM315.027 115.241V117.241H316.506L316.94 115.827L315.027 115.241ZM258.237 115.241L256.325 114.654L255.53 117.241H258.237V115.241ZM273.447 65.741L275.359 66.3284L275.635 65.4297L275.119 64.6437L273.447 65.741ZM267.777 57.101V55.101H264.073L266.105 58.1983L267.777 57.101ZM293.675 56.5147L280.265 100.255L284.089 101.427L297.499 57.6872L293.675 56.5147ZM282.177 102.841H319.437V98.841H282.177V102.841ZM317.525 100.255L313.115 114.655L316.94 115.827L321.35 101.427L317.525 100.255ZM315.027 113.241H258.237V117.241H315.027V113.241ZM260.149 115.828L275.359 66.3284L271.535 65.1535L256.325 114.654L260.149 115.828ZM275.119 64.6437L269.449 56.0037L266.105 58.1983L271.775 66.8383L275.119 64.6437ZM267.777 59.101H295.587V55.101H267.777V59.101ZM389.305 57.101L391.217 57.6866L392.009 55.101H389.305V57.101ZM383.545 75.911L384.753 77.5051L385.268 77.1147L385.457 76.4966L383.545 75.911ZM357.175 95.891L355.967 94.2969L355.452 94.6868L355.263 95.304L357.175 95.891ZM351.235 115.241V117.241H352.713L353.147 115.828L351.235 115.241ZM331.705 115.241L329.793 114.654L328.999 117.241H331.705V115.241ZM337.645 95.891L339.557 96.4779L339.844 95.542L339.281 94.7411L337.645 95.891ZM323.605 75.911L321.694 75.3192L321.404 76.2573L321.968 77.0609L323.605 75.911ZM326.755 65.741L328.665 66.3327L328.944 65.432L328.427 64.6437L326.755 65.741ZM321.085 57.101V55.101H317.38L319.413 58.1983L321.085 57.101ZM348.895 57.101L350.807 57.687L351.599 55.101H348.895V57.101ZM345.475 68.261L343.562 67.675L343.283 68.586L343.815 69.3768L345.475 68.261ZM352.675 78.971L351.015 80.0868L352.215 81.8712L353.908 80.5458L352.675 78.971ZM366.355 68.261L367.588 69.8358L368.083 69.4481L368.267 68.847L366.355 68.261ZM369.775 57.101V55.101H368.296L367.862 56.515L369.775 57.101ZM387.392 56.5154L381.632 75.3254L385.457 76.4966L391.217 57.6866L387.392 56.5154ZM382.337 74.3169L355.967 94.2969L358.383 97.4851L384.753 77.5051L382.337 74.3169ZM355.263 95.304L349.323 114.654L353.147 115.828L359.087 96.4779L355.263 95.304ZM351.235 113.241H331.705V117.241H351.235V113.241ZM333.617 115.828L339.557 96.4779L335.733 95.304L329.793 114.654L333.617 115.828ZM339.281 94.7411L325.241 74.7611L321.968 77.0609L336.008 97.0409L339.281 94.7411ZM325.515 76.5027L328.665 66.3327L324.844 65.1492L321.694 75.3192L325.515 76.5027ZM328.427 64.6437L322.757 56.0037L319.413 58.1983L325.083 66.8383L328.427 64.6437ZM321.085 59.101H348.895V55.101H321.085V59.101ZM346.982 56.515L343.562 67.675L347.387 68.847L350.807 57.687L346.982 56.515ZM343.815 69.3768L351.015 80.0868L354.335 77.8551L347.134 67.1451L343.815 69.3768ZM353.908 80.5458L367.588 69.8358L365.122 66.6862L351.442 77.3962L353.908 80.5458ZM368.267 68.847L371.687 57.687L367.862 56.515L364.442 67.675L368.267 68.847ZM369.775 59.101H389.305V55.101H369.775V59.101ZM396.322 65.741L398.234 66.3284L398.51 65.4297L397.994 64.6437L396.322 65.741ZM390.652 57.101V55.101H386.947L388.98 58.1983L390.652 57.101ZM418.192 57.101L419.977 56.1991L419.422 55.101H418.192V57.101ZM431.332 83.111L429.547 84.0128L431.783 88.4401L433.243 83.6996L431.332 83.111ZM439.342 57.101V55.101H437.865L437.43 56.5123L439.342 57.101ZM458.872 57.101L460.784 57.6871L461.577 55.101H458.872V57.101ZM441.052 115.241V117.241H442.531L442.964 115.827L441.052 115.241ZM421.792 115.241L420.007 116.143L420.562 117.241H421.792V115.241ZM408.652 89.231L410.437 88.3291L408.2 83.9018L406.74 88.6423L408.652 89.231ZM400.642 115.241V117.241H402.119L402.553 115.83L400.642 115.241ZM381.112 115.241L379.2 114.654L378.405 117.241H381.112V115.241ZM397.994 64.6437L392.324 56.0037L388.98 58.1983L394.65 66.8383L397.994 64.6437ZM390.652 59.101H418.192V55.101H390.652V59.101ZM416.407 58.0028L429.547 84.0128L433.117 82.2091L419.977 56.1991L416.407 58.0028ZM433.243 83.6996L441.253 57.6896L437.43 56.5123L429.42 82.5223L433.243 83.6996ZM439.342 59.101H458.872V55.101H439.342V59.101ZM456.96 56.5149L439.14 114.655L442.964 115.827L460.784 57.6871L456.96 56.5149ZM441.052 113.241H421.792V117.241H441.052V113.241ZM423.577 114.339L410.437 88.3291L406.867 90.1328L420.007 116.143L423.577 114.339ZM406.74 88.6423L398.73 114.652L402.553 115.83L410.563 89.8196L406.74 88.6423ZM400.642 113.241H381.112V117.241H400.642V113.241ZM383.024 115.828L398.234 66.3284L394.41 65.1535L379.2 114.654L383.024 115.828ZM465.889 65.741L467.801 66.3284L468.077 65.4297L467.561 64.6437L465.889 65.741ZM460.219 57.101V55.101H456.514L458.547 58.1983L460.219 57.101ZM487.759 57.101L489.544 56.1991L488.989 55.101H487.759V57.101ZM500.899 83.111L499.114 84.0128L501.351 88.4401L502.81 83.6996L500.899 83.111ZM508.909 57.101V55.101H507.432L506.998 56.5123L508.909 57.101ZM528.439 57.101L530.351 57.6871L531.144 55.101H528.439V57.101ZM510.619 115.241V117.241H512.098L512.531 115.827L510.619 115.241ZM491.359 115.241L489.574 116.143L490.129 117.241H491.359V115.241ZM478.219 89.231L480.004 88.3291L477.768 83.9018L476.308 88.6423L478.219 89.231ZM470.209 115.241V117.241H471.686L472.12 115.83L470.209 115.241ZM450.679 115.241L448.767 114.654L447.972 117.241H450.679V115.241ZM467.561 64.6437L461.891 56.0037L458.547 58.1983L464.217 66.8383L467.561 64.6437ZM460.219 59.101H487.759V55.101H460.219V59.101ZM485.974 58.0028L499.114 84.0128L502.684 82.2091L489.544 56.1991L485.974 58.0028ZM502.81 83.6996L510.82 57.6896L506.998 56.5123L498.988 82.5223L502.81 83.6996ZM508.909 59.101H528.439V55.101H508.909V59.101ZM526.527 56.5149L508.707 114.655L512.531 115.827L530.351 57.6871L526.527 56.5149ZM510.619 113.241H491.359V117.241H510.619V113.241ZM493.144 114.339L480.004 88.3291L476.434 90.1328L489.574 116.143L493.144 114.339ZM476.308 88.6423L468.298 114.652L472.12 115.83L480.13 89.8196L476.308 88.6423ZM470.209 113.241H450.679V117.241H470.209V113.241ZM452.591 115.828L467.801 66.3284L463.977 65.1535L448.767 114.654L452.591 115.828ZM527.446 71.591L525.537 70.9944L524.726 73.591H527.446V71.591ZM531.946 57.191V55.191H530.476L530.037 56.5944L531.946 57.191ZM551.566 57.191L553.475 57.7875L554.287 55.191H551.566V57.191ZM547.066 71.591L548.499 72.9864L548.833 72.6439L548.975 72.1875L547.066 71.591ZM536.986 81.941V83.941H537.83L538.419 83.3364L536.986 81.941ZM533.566 81.941L531.653 81.3586L530.867 83.941H533.566V81.941ZM536.716 71.591L538.63 72.1733L539.416 69.591H536.716V71.591ZM529.355 72.1875L533.855 57.7875L530.037 56.5944L525.537 70.9944L529.355 72.1875ZM531.946 59.191H551.566V55.191H531.946V59.191ZM549.657 56.5944L545.157 70.9944L548.975 72.1875L553.475 57.7875L549.657 56.5944ZM545.633 70.1956L535.553 80.5456L538.419 83.3364L548.499 72.9864L545.633 70.1956ZM536.986 79.941H533.566V83.941H536.986V79.941ZM535.48 82.5233L538.63 72.1733L534.803 71.0086L531.653 81.3586L535.48 82.5233ZM536.716 69.591H527.446V73.591H536.716V69.591ZM601.148 115.241V117.241H602.625L603.059 115.829L601.148 115.241ZM541.298 115.241L539.385 114.655L538.594 117.241H541.298V115.241ZM545.708 100.841V98.841H544.229L543.796 100.255L545.708 100.841ZM586.028 100.841V102.841H587.514L587.943 101.418L586.028 100.841ZM588.278 93.371L590.193 93.9478L590.969 91.371H588.278V93.371ZM547.958 93.371L546.047 92.7797L545.245 95.371H547.958V93.371ZM556.508 65.741L558.418 66.3322L558.697 65.4317L558.18 64.6437L556.508 65.741ZM550.838 57.101V55.101H547.133L549.166 58.1983L550.838 57.101ZM618.968 57.101L620.881 57.6833L621.667 55.101H618.968V57.101ZM614.558 71.591V73.591H616.04L616.471 72.1733L614.558 71.591ZM574.238 71.591V69.591H572.757L572.325 71.0077L574.238 71.591ZM571.988 78.971L570.075 78.3877L569.287 80.971H571.988V78.971ZM612.308 78.971L614.219 79.5591L615.016 76.971H612.308V78.971ZM601.148 113.241H541.298V117.241H601.148V113.241ZM543.21 115.827L547.62 101.427L543.796 100.255L539.385 114.655L543.21 115.827ZM545.708 102.841H586.028V98.841H545.708V102.841ZM587.943 101.418L590.193 93.9478L586.363 92.7942L584.113 100.264L587.943 101.418ZM588.278 91.371H547.958V95.371H588.278V91.371ZM549.868 93.9622L558.418 66.3322L554.597 65.1497L546.047 92.7797L549.868 93.9622ZM558.18 64.6437L552.51 56.0037L549.166 58.1983L554.836 66.8383L558.18 64.6437ZM550.838 59.101H618.968V55.101H550.838V59.101ZM617.055 56.5186L612.644 71.0086L616.471 72.1733L620.881 57.6833L617.055 56.5186ZM614.558 69.591H574.238V73.591H614.558V69.591ZM572.325 71.0077L570.075 78.3877L573.901 79.5542L576.151 72.1742L572.325 71.0077ZM571.988 80.971H612.308V76.971H571.988V80.971ZM610.396 78.3828L599.236 114.653L603.059 115.829L614.219 79.5591L610.396 78.3828ZM727.606 57.101L729.518 57.6871L730.311 55.101H727.606V57.101ZM709.786 115.241V117.241H711.265L711.698 115.827L709.786 115.241ZM690.256 115.241L688.343 114.659L687.557 117.241H690.256V115.241ZM695.926 96.611L697.84 97.1933L698.626 94.611H695.926V96.611ZM675.046 96.611V94.611H673.564L673.133 96.0286L675.046 96.611ZM669.376 115.241V117.241H670.858L671.29 115.823L669.376 115.241ZM649.846 115.241L647.935 114.654L647.139 117.241H649.846V115.241ZM665.056 65.741L666.968 66.3284L667.244 65.4297L666.728 64.6437L665.056 65.741ZM659.386 57.101V55.101H655.682L657.714 58.1983L659.386 57.101ZM682.786 71.591V69.591H681.305L680.873 71.0074L682.786 71.591ZM679.546 82.211L677.633 81.6274L676.845 84.211H679.546V82.211ZM700.426 82.211V84.211H701.907L702.339 82.7946L700.426 82.211ZM703.666 71.591L705.579 72.1746L706.367 69.591H703.666V71.591ZM725.694 56.5149L707.874 114.655L711.698 115.827L729.518 57.6871L725.694 56.5149ZM709.786 113.241H690.256V117.241H709.786V113.241ZM692.17 115.823L697.84 97.1933L694.013 96.0286L688.343 114.659L692.17 115.823ZM695.926 94.611H675.046V98.611H695.926V94.611ZM673.133 96.0286L667.463 114.659L671.29 115.823L676.96 97.1933L673.133 96.0286ZM669.376 113.241H649.846V117.241H669.376V113.241ZM651.758 115.828L666.968 66.3284L663.145 65.1535L647.935 114.654L651.758 115.828ZM666.728 64.6437L661.058 56.0037L657.714 58.1983L663.384 66.8383L666.728 64.6437ZM659.386 59.101H727.606V55.101H659.386V59.101ZM680.873 71.0074L677.633 81.6274L681.459 82.7946L684.699 72.1746L680.873 71.0074ZM679.546 84.211H700.426V80.211H679.546V84.211ZM702.339 82.7946L705.579 72.1746L701.753 71.0074L698.513 81.6274L702.339 82.7946ZM703.666 69.591H682.786V73.591H703.666V69.591ZM797.086 57.101L798.997 57.6898L799.794 55.101H797.086V57.101ZM785.386 95.081V97.081H786.862L787.297 95.6698L785.386 95.081ZM774.676 95.081V93.081H772.18L772.724 95.5167L774.676 95.081ZM779.176 115.241V117.241H781.671L781.128 114.805L779.176 115.241ZM759.556 115.241L757.609 115.701L757.974 117.241H759.556V115.241ZM754.786 95.081L756.732 94.6205L756.368 93.081H754.786V95.081ZM745.066 95.081V93.081H743.589L743.154 94.4922L745.066 95.081ZM738.856 115.241V117.241H740.332L740.767 115.83L738.856 115.241ZM719.326 115.241L717.414 114.654L716.619 117.241H719.326V115.241ZM734.536 65.741L736.447 66.3284L736.724 65.4297L736.208 64.6437L734.536 65.741ZM728.866 57.101V55.101H725.161L727.193 58.1983L728.866 57.101ZM752.266 71.591V69.591H750.801L750.359 70.9869L752.266 71.591ZM749.386 80.681L747.479 80.0769L746.654 82.681H749.386V80.681ZM770.266 80.681V82.681H771.73L772.172 81.285L770.266 80.681ZM773.146 71.591L775.052 72.195L775.877 69.591H773.146V71.591ZM795.174 56.5122L783.474 94.4922L787.297 95.6698L798.997 57.6898L795.174 56.5122ZM785.386 93.081H774.676V97.081H785.386V93.081ZM772.724 95.5167L777.224 115.677L781.128 114.805L776.628 94.6453L772.724 95.5167ZM779.176 113.241H759.556V117.241H779.176V113.241ZM761.502 114.78L756.732 94.6205L752.839 95.5415L757.609 115.701L761.502 114.78ZM754.786 93.081H745.066V97.081H754.786V93.081ZM743.154 94.4922L736.944 114.652L740.767 115.83L746.977 95.6697L743.154 94.4922ZM738.856 113.241H719.326V117.241H738.856V113.241ZM721.237 115.828L736.447 66.3284L732.624 65.1535L717.414 114.654L721.237 115.828ZM736.208 64.6437L730.538 56.0037L727.193 58.1983L732.863 66.8383L736.208 64.6437ZM728.866 59.101H797.086V55.101H728.866V59.101ZM750.359 70.9869L747.479 80.0769L751.292 81.285L754.172 72.195L750.359 70.9869ZM749.386 82.681H770.266V78.681H749.386V82.681ZM772.172 81.285L775.052 72.195L771.239 70.9869L768.359 80.0769L772.172 81.285ZM773.146 69.591H752.266V73.591H773.146V69.591ZM821.745 71.591V69.591H820.268L819.833 71.0028L821.745 71.591ZM812.745 100.841L810.833 100.253L810.037 102.841H812.745V100.841ZM852.885 100.841L854.797 101.427L855.589 98.841H852.885V100.841ZM848.475 115.241V117.241H849.954L850.387 115.827L848.475 115.241ZM788.805 115.241L786.893 114.654L786.098 117.241H788.805V115.241ZM804.015 65.741L805.927 66.3284L806.203 65.4297L805.687 64.6437L804.015 65.741ZM798.345 57.101V55.101H794.64L796.673 58.1983L798.345 57.101ZM866.385 57.101L868.295 57.6941L869.1 55.101H866.385V57.101ZM861.885 71.591V73.591H863.358L863.795 72.1841L861.885 71.591ZM819.833 71.0028L810.833 100.253L814.656 101.429L823.656 72.1791L819.833 71.0028ZM812.745 102.841H852.885V98.841H812.745V102.841ZM850.973 100.255L846.562 114.655L850.387 115.827L854.797 101.427L850.973 100.255ZM848.475 113.241H788.805V117.241H848.475V113.241ZM790.717 115.828L805.927 66.3284L802.103 65.1535L786.893 114.654L790.717 115.828ZM805.687 64.6437L800.017 56.0037L796.673 58.1983L802.343 66.8383L805.687 64.6437ZM798.345 59.101H866.385V55.101H798.345V59.101ZM864.475 56.5078L859.975 70.9978L863.795 72.1841L868.295 57.6941L864.475 56.5078ZM861.885 69.591H821.745V73.591H861.885V69.591ZM935.868 57.101L937.781 57.6871L938.573 55.101H935.868V57.101ZM918.048 115.241V117.241H919.527L919.961 115.827L918.048 115.241ZM898.518 115.241L896.605 114.659L895.819 117.241H898.518V115.241ZM904.188 96.611L906.102 97.1933L906.888 94.611H904.188V96.611ZM883.308 96.611V94.611H881.826L881.395 96.0286L883.308 96.611ZM877.638 115.241V117.241H879.12L879.552 115.823L877.638 115.241ZM858.108 115.241L856.197 114.654L855.402 117.241H858.108V115.241ZM873.318 65.741L875.23 66.3284L875.506 65.4297L874.99 64.6437L873.318 65.741ZM867.648 57.101V55.101H863.944L865.976 58.1983L867.648 57.101ZM891.048 71.591V69.591H889.568L889.135 71.0074L891.048 71.591ZM887.808 82.211L885.895 81.6274L885.107 84.211H887.808V82.211ZM908.688 82.211V84.211H910.169L910.601 82.7946L908.688 82.211ZM911.928 71.591L913.841 72.1746L914.63 69.591H911.928V71.591ZM933.956 56.5149L916.136 114.655L919.961 115.827L937.781 57.6871L933.956 56.5149ZM918.048 113.241H898.518V117.241H918.048V113.241ZM900.432 115.823L906.102 97.1933L902.275 96.0286L896.605 114.659L900.432 115.823ZM904.188 94.611H883.308V98.611H904.188V94.611ZM881.395 96.0286L875.725 114.659L879.552 115.823L885.222 97.1933L881.395 96.0286ZM877.638 113.241H858.108V117.241H877.638V113.241ZM860.02 115.828L875.23 66.3284L871.407 65.1535L856.197 114.654L860.02 115.828ZM874.99 64.6437L869.32 56.0037L865.976 58.1983L871.646 66.8383L874.99 64.6437ZM867.648 59.101H935.868V55.101H867.648V59.101ZM889.135 71.0074L885.895 81.6274L889.721 82.7946L892.961 72.1746L889.135 71.0074ZM887.808 84.211H908.688V80.211H887.808V84.211ZM910.601 82.7946L913.841 72.1746L910.015 71.0074L906.775 81.6274L910.601 82.7946ZM911.928 69.591H891.048V73.591H911.928V69.591ZM927.588 115.241L925.676 114.654L924.881 117.241H927.588V115.241ZM942.798 65.741L944.709 66.3284L944.986 65.4297L944.47 64.6437L942.798 65.741ZM937.128 57.101V55.101H933.423L935.456 58.1983L937.128 57.101ZM1005.35 57.101L1007.26 57.6862L1008.05 55.101H1005.35V57.101ZM992.928 97.691L994.128 99.291L994.649 98.8997L994.84 98.2762L992.928 97.691ZM969.528 115.241V117.241H970.194L970.728 116.841L969.528 115.241ZM981.408 71.591L983.317 72.187L984.127 69.591H981.408V71.591ZM960.528 71.591V69.591H959.051L958.616 71.0028L960.528 71.591ZM951.528 100.841L949.616 100.253L948.82 102.841H951.528V100.841ZM961.968 100.841V102.841H962.662L963.207 102.411L961.968 100.841ZM975.648 90.041L976.887 91.6107L977.372 91.2274L977.557 90.637L975.648 90.041ZM929.499 115.828L944.709 66.3284L940.886 65.1535L925.676 114.654L929.499 115.828ZM944.47 64.6437L938.8 56.0037L935.456 58.1983L941.126 66.8383L944.47 64.6437ZM937.128 59.101H1005.35V55.101H937.128V59.101ZM1003.44 56.5158L991.015 97.1058L994.84 98.2762L1007.26 57.6862L1003.44 56.5158ZM991.728 96.091L968.328 113.641L970.728 116.841L994.128 99.291L991.728 96.091ZM969.528 113.241H927.588V117.241H969.528V113.241ZM981.408 69.591H960.528V73.591H981.408V69.591ZM958.616 71.0028L949.616 100.253L953.439 101.429L962.439 72.1791L958.616 71.0028ZM951.528 102.841H961.968V98.841H951.528V102.841ZM963.207 102.411L976.887 91.6107L974.408 88.4712L960.728 99.2712L963.207 102.411ZM977.557 90.637L983.317 72.187L979.499 70.9949L973.739 89.4449L977.557 90.637ZM1030.09 71.591V69.591H1028.61L1028.18 71.0077L1030.09 71.591ZM1027.84 78.971L1025.93 78.3877L1025.14 80.971H1027.84V78.971ZM1068.25 78.971L1070.16 79.5675L1070.98 76.971H1068.25V78.971ZM1063.75 93.371V95.371H1065.23L1065.66 93.9675L1063.75 93.371ZM1023.34 93.371V91.371H1021.86L1021.43 92.7942L1023.34 93.371ZM1021.09 100.841L1019.18 100.264L1018.4 102.841H1021.09V100.841ZM1061.41 100.841L1063.33 101.416L1064.1 98.841H1061.41V100.841ZM1057.09 115.241V117.241H1058.58L1059.01 115.816L1057.09 115.241ZM997.155 115.241L995.243 114.654L994.448 117.241H997.155V115.241ZM1012.36 65.741L1014.28 66.3284L1014.55 65.4297L1014.04 64.6437L1012.36 65.741ZM1006.69 57.101V55.101H1002.99L1005.02 58.1983L1006.69 57.101ZM1074.91 57.101L1076.82 57.6941L1077.63 55.101H1074.91V57.101ZM1070.41 71.591V73.591H1071.89L1072.32 72.1841L1070.41 71.591ZM1028.18 71.0077L1025.93 78.3877L1029.76 79.5542L1032.01 72.1742L1028.18 71.0077ZM1027.84 80.971H1068.25V76.971H1027.84V80.971ZM1066.35 78.3744L1061.85 92.7744L1065.66 93.9675L1070.16 79.5675L1066.35 78.3744ZM1063.75 91.371H1023.34V95.371H1063.75V91.371ZM1021.43 92.7942L1019.18 100.264L1023.01 101.418L1025.26 93.9478L1021.43 92.7942ZM1021.09 102.841H1061.41V98.841H1021.09V102.841ZM1059.5 100.266L1055.18 114.666L1059.01 115.816L1063.33 101.416L1059.5 100.266ZM1057.09 113.241H997.155V117.241H1057.09V113.241ZM999.067 115.828L1014.28 66.3284L1010.45 65.1535L995.243 114.654L999.067 115.828ZM1014.04 64.6437L1008.37 56.0037L1005.02 58.1983L1010.69 66.8383L1014.04 64.6437ZM1006.69 59.101H1074.91V55.101H1006.69V59.101ZM1073 56.5078L1068.5 70.9978L1072.32 72.1841L1076.82 57.6941L1073 56.5078ZM1070.41 69.591H1030.09V73.591H1070.41V69.591Z" fill="white" mask="url(#path-5-outside-2_96_727)"/>
</g>
<g filter="url(#filter4_f_96_727)">
<path d="M915.188 51.7224L940.884 53.3773L945.675 69.9274L940.884 72.6495L932.827 58.4704H915.188V51.7224Z" fill="url(#paint2_linear_96_727)"/>
</g>
<g filter="url(#filter5_f_96_727)">
<rect x="924.815" y="47.4399" width="20.207" height="15.313" rx="7.6565" fill="white"/>
</g>
<g filter="url(#filter6_f_96_727)">
<rect x="371.291" y="51.7224" width="55.632" height="6.74797" fill="url(#paint3_linear_96_727)"/>
</g>
<g filter="url(#filter7_f_96_727)">
<rect x="390.399" y="47.4399" width="20.207" height="15.313" rx="7.6565" fill="white"/>
</g>
<g filter="url(#filter8_f_96_727)">
<path d="M583.459 123.995C598.68 118.534 604.383 113.108 609.321 99.0584L610.668 103.162C607.621 117.986 601.759 122.613 585.884 126.06L583.459 123.995Z" fill="url(#paint4_linear_96_727)"/>
</g>
<g filter="url(#filter9_f_96_727)">
<rect x="590.997" y="117.085" width="20.207" height="15.313" rx="7.6565" transform="rotate(-45 590.997 117.085)" fill="white"/>
</g>
<defs>
<filter id="filter0_d_96_727" x="597.04" y="109.307" width="482.46" height="83.9065" filterUnits="userSpaceOnUse" color-interpolation-filters="sRGB">
<feFlood flood-opacity="0" result="BackgroundImageFix"/>
<feColorMatrix in="SourceAlpha" type="matrix" values="0 0 0 0 0 0 0 0 0 0 0 0 0 0 0 0 0 0 127 0" result="hardAlpha"/>
<feOffset/>
<feGaussianBlur stdDeviation="8"/>
<feComposite in2="hardAlpha" operator="out"/>
<feColorMatrix type="matrix" values="0 0 0 0 0.646667 0 0 0 0 0.9788 0 0 0 0 1 0 0 0 1 0"/>
<feBlend mode="normal" in2="BackgroundImageFix" result="effect1_dropShadow_96_727"/>
<feBlend mode="normal" in="SourceGraphic" in2="effect1_dropShadow_96_727" result="shape"/>
</filter>
<filter id="filter1_d_96_727" x="70.9185" y="0.776855" width="263.691" height="68.9868" filterUnits="userSpaceOnUse" color-interpolation-filters="sRGB">
<feFlood flood-opacity="0" result="BackgroundImageFix"/>
<feColorMatrix in="SourceAlpha" type="matrix" values="0 0 0 0 0 0 0 0 0 0 0 0 0 0 0 0 0 0 127 0" result="hardAlpha"/>
<feOffset/>
<feGaussianBlur stdDeviation="8"/>
<feComposite in2="hardAlpha" operator="out"/>
<feColorMatrix type="matrix" values="0 0 0 0 0.646667 0 0 0 0 0.9788 0 0 0 0 1 0 0 0 1 0"/>
<feBlend mode="normal" in2="BackgroundImageFix" result="effect1_dropShadow_96_727"/>
<feBlend mode="normal" in="SourceGraphic" in2="effect1_dropShadow_96_727" result="shape"/>
</filter>
<filter id="filter2_ddi_96_727" x="176.758" y="45.1011" width="910.157" height="82.1399" filterUnits="userSpaceOnUse" color-interpolation-filters="sRGB">
<feFlood flood-opacity="0" result="BackgroundImageFix"/>
<feColorMatrix in="SourceAlpha" type="matrix" values="0 0 0 0 0 0 0 0 0 0 0 0 0 0 0 0 0 0 127 0" result="hardAlpha"/>
<feOffset dy="6"/>
<feComposite in2="hardAlpha" operator="out"/>
<feColorMatrix type="matrix" values="0 0 0 0 0.217671 0 0 0 0 0.36159 0 0 0 0 0.731667 0 0 0 1 0"/>
<feBlend mode="normal" in2="BackgroundImageFix" result="effect1_dropShadow_96_727"/>
<feColorMatrix in="SourceAlpha" type="matrix" values="0 0 0 0 0 0 0 0 0 0 0 0 0 0 0 0 0 0 127 0" result="hardAlpha"/>
<feOffset/>
<feGaussianBlur stdDeviation="6"/>
<feComposite in2="hardAlpha" operator="out"/>
<feColorMatrix type="matrix" values="0 0 0 0 0.6 0 0 0 0 0.904 0 0 0 0 1 0 0 0 1 0"/>
<feBlend mode="normal" in2="effect1_dropShadow_96_727" result="effect2_dropShadow_96_727"/>
<feBlend mode="normal" in="SourceGraphic" in2="effect2_dropShadow_96_727" result="shape"/>
<feColorMatrix in="SourceAlpha" type="matrix" values="0 0 0 0 0 0 0 0 0 0 0 0 0 0 0 0 0 0 127 0" result="hardAlpha"/>
<feOffset dy="4"/>
<feGaussianBlur stdDeviation="2"/>
<feComposite in2="hardAlpha" operator="arithmetic" k2="-1" k3="1"/>
<feColorMatrix type="matrix" values="0 0 0 0 0.393333 0 0 0 0 0.7816 0 0 0 0 1 0 0 0 0.5 0"/>
<feBlend mode="normal" in2="shape" result="effect3_innerShadow_96_727"/>
</filter>
<filter id="filter3_f_96_727" x="187.258" y="55.6011" width="889.157" height="61.1399" filterUnits="userSpaceOnUse" color-interpolation-filters="sRGB">
<feFlood flood-opacity="0" result="BackgroundImageFix"/>
<feBlend mode="normal" in="SourceGraphic" in2="BackgroundImageFix" result="shape"/>
<feGaussianBlur stdDeviation="0.75" result="effect1_foregroundBlur_96_727"/>
</filter>
<filter id="filter4_f_96_727" x="911.188" y="47.7224" width="38.4873" height="28.927" filterUnits="userSpaceOnUse" color-interpolation-filters="sRGB">
<feFlood flood-opacity="0" result="BackgroundImageFix"/>
<feBlend mode="normal" in="SourceGraphic" in2="BackgroundImageFix" result="shape"/>
<feGaussianBlur stdDeviation="2" result="effect1_foregroundBlur_96_727"/>
</filter>
<filter id="filter5_f_96_727" x="916.815" y="39.4399" width="36.207" height="31.313" filterUnits="userSpaceOnUse" color-interpolation-filters="sRGB">
<feFlood flood-opacity="0" result="BackgroundImageFix"/>
<feBlend mode="normal" in="SourceGraphic" in2="BackgroundImageFix" result="shape"/>
<feGaussianBlur stdDeviation="4" result="effect1_foregroundBlur_96_727"/>
</filter>
<filter id="filter6_f_96_727" x="367.291" y="47.7224" width="63.6318" height="14.748" filterUnits="userSpaceOnUse" color-interpolation-filters="sRGB">
<feFlood flood-opacity="0" result="BackgroundImageFix"/>
<feBlend mode="normal" in="SourceGraphic" in2="BackgroundImageFix" result="shape"/>
<feGaussianBlur stdDeviation="2" result="effect1_foregroundBlur_96_727"/>
</filter>
<filter id="filter7_f_96_727" x="382.399" y="39.4399" width="36.207" height="31.313" filterUnits="userSpaceOnUse" color-interpolation-filters="sRGB">
<feFlood flood-opacity="0" result="BackgroundImageFix"/>
<feBlend mode="normal" in="SourceGraphic" in2="BackgroundImageFix" result="shape"/>
<feGaussianBlur stdDeviation="4" result="effect1_foregroundBlur_96_727"/>
</filter>
<filter id="filter8_f_96_727" x="579.459" y="95.0583" width="35.209" height="35.002" filterUnits="userSpaceOnUse" color-interpolation-filters="sRGB">
<feFlood flood-opacity="0" result="BackgroundImageFix"/>
<feBlend mode="normal" in="SourceGraphic" in2="BackgroundImageFix" result="shape"/>
<feGaussianBlur stdDeviation="2" result="effect1_foregroundBlur_96_727"/>
</filter>
<filter id="filter9_f_96_727" x="586.168" y="97.9675" width="34.7734" height="34.7737" filterUnits="userSpaceOnUse" color-interpolation-filters="sRGB">
<feFlood flood-opacity="0" result="BackgroundImageFix"/>
<feBlend mode="normal" in="SourceGraphic" in2="BackgroundImageFix" result="shape"/>
<feGaussianBlur stdDeviation="4" result="effect1_foregroundBlur_96_727"/>
</filter>
<linearGradient id="paint0_linear_96_727" x1="570" y1="41.241" x2="659.503" y2="140.688" gradientUnits="userSpaceOnUse">
<stop stop-color="#A5FAFF"/>
<stop offset="0.13" stop-color="#5F8BFD"/>
<stop offset="0.389" stop-color="#5572EC"/>
<stop offset="0.704" stop-color="#65BBEB"/>
<stop offset="0.799" stop-color="#625FE4"/>
<stop offset="1" stop-color="#59E9F2"/>
</linearGradient>
<linearGradient id="paint1_linear_96_727" x1="670" y1="41.241" x2="580.497" y2="140.688" gradientUnits="userSpaceOnUse">
<stop stop-color="#45F4FF"/>
<stop offset="0.490001" stop-color="#E9FBFF"/>
<stop offset="1" stop-color="#5FE2FF"/>
</linearGradient>
<linearGradient id="paint2_linear_96_727" x1="915.188" y1="55.0964" x2="961.339" y2="55.0964" gradientUnits="userSpaceOnUse">
<stop stop-color="white"/>
<stop offset="0.565" stop-color="#7AE7FF"/>
<stop offset="1" stop-color="white"/>
</linearGradient>
<linearGradient id="paint3_linear_96_727" x1="371.291" y1="55.0964" x2="426.923" y2="55.0964" gradientUnits="userSpaceOnUse">
<stop stop-color="white"/>
<stop offset="0.565" stop-color="#7AE7FF"/>
<stop offset="1" stop-color="white"/>
</linearGradient>
<linearGradient id="paint4_linear_96_727" x1="582.899" y1="136.01" x2="622.237" y2="96.6727" gradientUnits="userSpaceOnUse">
<stop stop-color="white"/>
<stop offset="0.565" stop-color="#7AE7FF"/>
<stop offset="1" stop-color="white"/>
</linearGradient>
</defs>
</svg>
